<?xml version="1.0" encoding="UTF-8" standalone="no"?>
<svg
   xmlns:dc="http://purl.org/dc/elements/1.1/"
   xmlns:cc="http://creativecommons.org/ns#"
   xmlns:rdf="http://www.w3.org/1999/02/22-rdf-syntax-ns#"
   xmlns:svg="http://www.w3.org/2000/svg"
   xmlns="http://www.w3.org/2000/svg"
   xmlns:xlink="http://www.w3.org/1999/xlink"
   xmlns:sodipodi="http://sodipodi.sourceforge.net/DTD/sodipodi-0.dtd"
   xmlns:inkscape="http://www.inkscape.org/namespaces/inkscape"
   width="219.52495mm"
   height="112.13549mm"
   viewBox="0 0 219.52495 112.13549"
   version="1.1"
   id="svg1740"
   inkscape:version="1.0.2 (e86c8708, 2021-01-15)"
   sodipodi:docname="logo2.svg">
  <defs
     id="defs1734">
    <inkscape:perspective
       sodipodi:type="inkscape:persp3d"
       inkscape:vp_x="0 : 27.7847 : 1"
       inkscape:vp_y="0 : 999.99997 : 0"
       inkscape:vp_z="219.52495 : 27.7847 : 1"
       inkscape:persp3d-origin="109.76247 : -0.33223082 : 1"
       id="perspective3406" />
    <linearGradient
       inkscape:collect="always"
       id="ljus">
      <stop
         style="stop-color:#000000;stop-opacity:1;"
         offset="0"
         id="stop3217" />
      <stop
         style="stop-color:#000000;stop-opacity:0;"
         offset="1"
         id="stop3219" />
    </linearGradient>
    <rect
       x="33.301006"
       y="260.9339"
       width="139.59052"
       height="25.545977"
       id="rect3209" />
    <rect
       x="22.35273"
       y="252.7227"
       width="166.96121"
       height="40.599857"
       id="rect3196" />
    <linearGradient
       inkscape:collect="always"
       xlink:href="#ljus"
       id="linearGradient3223"
       x1="37.205452"
       y1="253.65067"
       x2="175.38899"
       y2="253.65067"
       gradientUnits="userSpaceOnUse" />
  </defs>
  <sodipodi:namedview
     id="base"
     pagecolor="#ffffff"
     bordercolor="#666666"
     borderopacity="1.0"
     inkscape:pageopacity="0.0"
     inkscape:pageshadow="2"
     inkscape:zoom="0.58"
     inkscape:cx="326.26205"
     inkscape:cy="335.1399"
     inkscape:document-units="mm"
     inkscape:current-layer="layer1"
     inkscape:document-rotation="0"
     showgrid="false"
     inkscape:pagecheckerboard="true"
     inkscape:window-width="1440"
     inkscape:window-height="855"
     inkscape:window-x="1551"
     inkscape:window-y="123"
     inkscape:window-maximized="0" />
  <metadata
     id="metadata1737">
    <rdf:RDF>
      <cc:Work
         rdf:about="">
        <dc:format>image/svg+xml</dc:format>
        <dc:type
           rdf:resource="http://purl.org/dc/dcmitype/StillImage" />
        <dc:title />
      </cc:Work>
    </rdf:RDF>
  </metadata>
  <g
     inkscape:groupmode="layer"
     id="layer9"
     inkscape:label="Background"
     transform="translate(8.8983365,40.045503)" />
  <g
     inkscape:groupmode="layer"
     id="layer8"
     inkscape:label="Lager 0"
     transform="translate(8.3289461,-129.47635)">
    <rect
       style="fill:#f39c12;fill-opacity:1;stroke:none;stroke-width:0.580572;stroke-opacity:0.598404;paint-order:stroke markers fill"
       id="rect3321"
       width="219.52495"
       height="112.13549"
       x="-8.3289461"
       y="129.47635" />
    <ellipse
       style="fill:#f1c40f;stroke:none;stroke-width:2.72564;paint-order:stroke markers fill"
       id="path4370"
       cx="126.24361"
       cy="178.2813"
       rx="19.615658"
       ry="19.609501" />
  </g>
  <g
     inkscape:label="Lager 1"
     inkscape:groupmode="layer"
     id="layer1"
     transform="translate(8.3289461,-129.47635)">
    <path
       d="m -8.451317,207.24435 c 0,-27.43781 0.02139,-34.38135 0.10593,-34.393 0.05826,-0.009 0.250379,-0.0379 0.426922,-0.0668 0.237351,-0.0388 0.314649,-0.0238 0.2966,0.0574 -0.01345,0.0602 0.05273,0.15122 0.14699,0.20227 0.09689,0.0522 0.158638,0.1576 0.1421,0.24227 -0.03219,0.16455 0.270431,0.21774 0.364461,0.0644 0.02881,-0.0469 0.01196,-0.0857 -0.03738,-0.0857 -0.04936,0 -0.08975,-0.0385 -0.08975,-0.0856 0,-0.0469 0.136054,-0.0856 0.302307,-0.0856 0.2615346,0 0.2951939,0.0225 0.2496508,0.16735 -0.042564,0.13547 4.238e-4,0.18124 0.2246137,0.24001 0.1938949,0.0507 0.2919555,0.13546 0.3261606,0.28167 0.066797,0.28575 0.2888173,0.26774 0.322311,-0.0263 0.01478,-0.12946 0.071953,-0.23536 0.1270966,-0.23545 0.068016,-9e-5 0.1003037,0.19954 0.1003037,0.62026 0,0.56338 0.015673,0.62042 0.1694665,0.62042 0.1122098,0 0.1788026,-0.0662 0.1970463,-0.1962 0.020624,-0.14671 0.066906,-0.18349 0.183542,-0.14615 0.08579,0.0274 0.1796031,0.0113 0.2084991,-0.0358 0.03463,-0.0567 0.1239039,-0.0531 0.2617106,0.009 0.1150473,0.0529 0.2275686,0.0779 0.2500444,0.0552 0.069416,-0.0702 0.075575,-0.61624 0.00966,-0.8495 -0.058296,-0.20605 -0.045776,-0.21881 0.1809592,-0.18537 0.1512592,0.0223 0.2840416,-0.015 0.3503495,-0.094 0.094533,-0.11501 0.1255149,-0.11107 0.2705773,0.0353 0.2073882,0.20939 0.2100422,0.33271 0.00604,0.27881 -0.2023325,-0.0533 -0.3135194,0.30293 -0.1469907,0.47109 0.093482,0.0942 0.1451288,0.0953 0.2888401,0.004 0.1349451,-0.0852 0.2198359,-0.0876 0.3708765,-0.0113 0.3704813,0.18612 1.4534279,0.26244 1.93308099,0.1364 0.2405876,-0.0632 0.3018838,-0.1244 0.3245759,-0.32245 0.015352,-0.13452 -0.039922,-0.37179 -0.1228835,-0.52742 -0.1366908,-0.25621 -0.1385526,-0.29736 -0.019692,-0.43687 0.072142,-0.0848 0.1548815,-0.22138 0.1837994,-0.30369 0.064503,-0.18368 0.192366,-0.1943 0.2580413,-0.0214 0.026804,0.0703 0.088095,0.12852 0.1361719,0.12852 0.1121982,0 0.1143715,-0.31534 0.00269,-0.38498 -0.1468443,-0.0916 -0.092092,-0.21395 0.095767,-0.21395 0.163792,0 0.1765218,-0.0358 0.137517,-0.38492 -0.051074,-0.45764 -0.181713,-0.6417 -0.4555276,-0.6417 -0.1108091,0 -0.20147,-0.0385 -0.20147,-0.0855 0,-0.0469 0.073484,-0.0856 0.1633386,-0.0856 0.089836,0 0.2371326,-0.0946 0.3273369,-0.21051 0.144034,-0.18481 0.1830796,-0.19638 0.3207342,-0.0946 0.1373977,0.1015 0.1418475,0.13377 0.036022,0.26254 -0.1054568,0.12852 -0.1023842,0.16041 0.024376,0.25398 0.1701112,0.12552 0.1901755,0.53639 0.042243,0.86424 -0.091952,0.20371 -0.080952,0.24589 0.103308,0.39653 0.17322358,0.14166 0.28114048,0.15948 0.67488411,0.11107 0.2577748,-0.0315 0.5577753,-0.11501 0.6666968,-0.18555 0.2922609,-0.18929 0.3211917,-0.0747 0.060227,0.23839 l -0.2289536,0.27466 0.4329472,0.21505 c 0.4004164,0.19889 0.4433361,0.20456 0.5712637,0.0754 0.1080318,-0.10901 0.1164847,-0.16623 0.038644,-0.26081 -0.054802,-0.0668 -0.093178,-0.19366 -0.085238,-0.28237 0.038483,-0.42986 -0.015514,-0.63168 -0.1688844,-0.63168 -0.2103795,0 -0.6909349,-0.24759 -0.6909349,-0.35596 0,-0.0533 0.126387,-0.0651 0.3286788,-0.0308 0.3102259,0.0529 0.333768,0.0415 0.4192818,-0.20647 0.097625,-0.28276 0.1833137,-0.3147 0.4530728,-0.16886 0.1209926,0.0653 0.1997853,0.0668 0.2621248,10e-4 0.120059,-0.12102 0.8169145,-0.0208 1.0543092,0.15178 0.1160981,0.0842 0.1701995,0.19284 0.1425859,0.28584 -0.024464,0.0824 -0.00387,0.14972 0.045928,0.14972 0.049731,0 0.090448,-0.0533 0.090448,-0.11857 0,-0.14428 0.47688,-0.22971 0.7349041,-0.13153 0.2455886,0.0931 0.4278636,-0.10525 0.2406479,-0.26216 -0.07051,-0.0591 -0.1281457,-0.18443 -0.1281457,-0.27867 0,-0.14484 -0.03946,-0.16323 -0.2542263,-0.12008 -0.191526,0.0386 -0.2542348,0.0189 -0.2542348,-0.0762 0,-0.0882 -0.076095,-0.12177 -0.2457756,-0.10882 -0.3044076,0.0233 -0.533285,-0.15704 -0.4997808,-0.39372 0.020295,-0.14335 0.075408,-0.17318 0.2794948,-0.15085 0.1398096,0.015 0.3209511,0.0889 0.4025103,0.16304 0.1928023,0.17561 0.1928023,0.0627 0,-0.13978 -0.1381089,-0.14521 -0.2942969,-0.20161 -0.8908235,-0.32265 -0.3039626,-0.0617 -0.3706584,-0.18105 -0.1982792,-0.35509 0.1139128,-0.11501 0.1681484,-0.12101 0.3054699,-0.0345 0.2645002,0.16698 0.338827,0.12702 0.2836663,-0.15122 -0.038063,-0.19199 -0.019521,-0.25667 0.073732,-0.25667 0.1820998,0 0.4516675,0.33466 0.4209018,0.5226 -0.01996,0.12195 0.024581,0.16192 0.1808051,0.16192 0.1360388,0 0.2225132,0.0589 0.2516029,0.17111 0.059518,0.22974 0.3144041,0.22319 0.3144041,-0.009 0,-0.10732 -0.068058,-0.197 -0.169472,-0.22385 -0.093263,-0.0246 -0.1694849,-0.0756 -0.1694849,-0.11314 0,-0.0379 -0.02197,-0.12627 -0.048849,-0.197 -0.033154,-0.0872 0.012269,-0.13771 0.1415973,-0.15685 0.1204812,-0.0169 0.262793,-0.15985 0.3872526,-0.38629 0.1799801,-0.32753 0.1852508,-0.36969 0.061817,-0.49431 -0.1137184,-0.11482 -0.1170875,-0.15779 -0.021562,-0.27422 0.074376,-0.0906 0.1243478,-0.46031 0.1451737,-1.07485 l 0.03178,-0.93694 0.2445713,-0.0861 c 0.1345315,-0.0473 0.2493488,-0.12102 0.2551642,-0.16361 0.0058,-0.0426 0.019918,-0.18293 0.031349,-0.31242 0.011473,-0.12946 0.061925,-0.68865 0.1122701,-1.24271 0.050343,-0.55404 0.06952,-1.19509 0.042619,-1.42457 -0.048485,-0.41329 0.034829,-1.42655 0.1109541,-1.34963 0.021766,0.022 0.054436,0.6893 0.072614,1.48303 0.018189,0.79362 0.035357,1.45738 0.038182,1.47491 0.0028,0.0169 0.064052,-0.0169 0.1360688,-0.0779 0.088042,-0.0735 0.1141545,-0.18649 0.07977,-0.34454 -0.029695,-0.13621 -0.010991,-0.25989 0.044446,-0.29451 0.064922,-0.0403 0.076965,-0.23481 0.037462,-0.60701 -0.040427,-0.38098 -0.029329,-0.54742 0.036559,-0.54742 0.052051,0 0.094596,-0.0775 0.094596,-0.17224 0,-0.0946 0.047669,-0.24989 0.1059401,-0.3448 0.08729,-0.14222 0.083593,-0.18706 -0.021219,-0.25417 -0.098431,-0.0632 -0.074526,-0.082 0.1059725,-0.0831 0.1281466,-7.1e-4 0.2285121,-0.03 0.2229911,-0.0653 -0.0058,-0.0353 -0.00483,-0.12196 0.00128,-0.19241 0.010097,-0.11407 0.020434,-0.11407 0.093446,0 0.070208,0.10957 0.082359,0.10657 0.083465,-0.0214 7.037e-4,-0.0824 0.056241,-0.14991 0.1234023,-0.14991 0.1769729,0 0.2472779,-0.15928 0.1321224,-0.29948 -0.1344128,-0.1636 -0.03511,-0.29944 0.2187926,-0.29944 0.2032497,0 0.205119,-0.004 0.069986,-0.21387 -0.1137302,-0.17523 -0.1171596,-0.21387 -0.019,-0.21387 0.065851,0 0.2780203,-0.15347 0.4714667,-0.3412 0.1934372,-0.18762 0.3749548,-0.30312 0.4034098,-0.25667 0.086526,0.14128 0.2778722,0.0944 0.26534,-0.0653 -0.00838,-0.10563 0.050334,-0.14991 0.2000744,-0.14991 0.1738665,0 0.2159052,0.0462 0.2345492,0.25665 0.03564,0.40346 0.2037569,0.9839 0.2849009,0.9839 0.04058,0 0.07373,-0.0529 0.07373,-0.11764 0,-0.0647 0.0603,-0.16829 0.133939,-0.23008 0.07792,-0.0651 0.118333,-0.19449 0.09662,-0.30935 -0.04491,-0.23715 0.163279,-0.46197 0.240245,-0.25946 0.02699,0.0711 0.04052,0.18124 0.03007,0.24489 -0.02434,0.14765 0.0951,0.4391 0.213315,0.52081 0.0611,0.0418 0.05621,0.0632 -0.01502,0.0642 -0.05825,7.5e-4 -0.105951,0.0782 -0.105951,0.17242 0,0.0942 0.02885,0.17111 0.06411,0.17111 0.0352,0 0.117147,0.12514 0.182109,0.27804 0.169847,0.40002 0.276052,0.52226 0.34951,0.40231 0.03661,-0.0599 0.08019,-0.015 0.112306,0.11314 0.07299,0.29347 0.356442,0.38267 1.537611,0.48361 1.383062,0.11839 2.505575,0.25602 2.608581,0.32032 0.05624,0.0349 0.06508,0.87167 0.02593,2.45742 -0.05074,2.05396 -0.04109,2.42911 0.06598,2.57526 0.110785,0.15104 0.110604,0.18762 -0.0016,0.31329 -0.178669,0.19995 -0.116689,0.61799 0.09755,0.65802 0.09324,0.0169 0.201341,0.0876 0.240275,0.15592 0.03894,0.0683 0.153332,0.15628 0.254237,0.19574 0.168895,0.0662 0.171252,0.0764 0.02972,0.13415 -0.10767,0.0439 -0.191588,0.009 -0.280224,-0.11989 -0.165503,-0.23856 -0.36846,-0.23317 -0.381155,0.009 -0.06735,1.29248 -0.0574,1.78369 0.0355,1.75281 0.0559,-0.019 0.11378,-0.11745 0.128723,-0.21952 0.01723,-0.1182 0.08751,-0.18593 0.193315,-0.18593 0.169671,0 0.193212,-0.0375 0.282591,-0.44916 0.04137,-0.19072 0.09761,-0.2353 0.296591,-0.2353 0.135063,0 0.259567,-0.0422 0.276729,-0.0942 0.01713,-0.0518 0.07988,0.0976 0.139365,0.3318 l 0.108188,0.42626 0.432729,0.0418 c 0.46898,0.0456 0.658514,0.20584 0.658514,0.55699 0,0.16567 0.03187,0.19306 0.173555,0.14766 0.188923,-0.0602 0.419602,0.0839 0.419602,0.26265 0,0.0617 -0.07628,0.13658 -0.169481,0.16641 -0.246908,0.0792 -0.207298,0.21357 0.06356,0.21579 l 0.233029,8.6e-4 -0.211858,0.16848 c -0.179516,0.14297 -0.19244,0.18143 -0.08474,0.25342 0.06989,0.0467 0.264004,0.0856 0.431292,0.0863 0.242885,8.2e-4 0.323611,-0.0418 0.400703,-0.21261 0.07253,-0.16061 0.165432,-0.21629 0.373763,-0.22359 0.502341,-0.0169 0.726895,-0.0628 0.986721,-0.1985 0.394574,-0.20605 0.501909,-0.16942 0.614364,0.20961 0.08171,0.27516 0.133083,0.3336 0.258284,0.29345 0.08594,-0.0278 0.370373,0.0488 0.631968,0.1698 0.261602,0.12102 0.524198,0.21987 0.583491,0.21987 0.144568,0 0.20257,0.17524 0.149955,0.45316 -0.06831,0.36089 0.02221,0.51472 0.235294,0.39962 0.151625,-0.0816 0.168856,-0.14503 0.119733,-0.4387 -0.04841,-0.28908 -0.02961,-0.36259 0.119322,-0.46789 0.09717,-0.0687 0.208366,-0.24835 0.247087,-0.39918 0.08832,-0.34406 0.268196,-0.35124 0.437706,-0.0169 0.0717,0.1409 0.138315,0.27111 0.148014,0.28874 0.02469,0.0448 0.447412,0.0403 0.492606,-0.004 0.05044,-0.0508 0.371164,-10.11106 0.506814,-15.89694 0.02706,-1.1529 0.06999,-2.24048 0.0955,-2.41693 0.05015,-0.34727 0.200098,-0.44245 0.202236,-0.12852 7.04e-4,0.10581 0.03704,0.24961 0.0808,0.31942 0.06312,0.10094 0.105209,0.0657 0.204413,-0.17111 0.06876,-0.16398 0.203955,-0.34646 0.300563,-0.40569 0.09656,-0.0591 0.17559,-0.18424 0.17559,-0.27806 0,-0.15872 0.05734,-0.17035 0.826223,-0.16942 1.195697,8.5e-4 1.461797,0.0582 1.461797,0.31179 0,0.1409 0.0676,0.23076 0.217358,0.28826 0.301848,0.11595 0.946073,0.10451 1.021058,-0.019 0.05838,-0.0955 0.101361,-1.34089 0.251062,-7.2775 0.0341,-1.35286 0.08951,-2.45967 0.123077,-2.45967 0.08601,0 0.198113,0.50644 0.179907,0.81273 l -0.01519,0.25669 0.130141,-0.23365 c 0.116244,-0.20876 0.175712,-0.2327 0.555829,-0.22405 0.336683,0.009 0.469303,-0.0319 0.634562,-0.18841 0.153239,-0.14559 0.180755,-0.21575 0.103287,-0.26404 -0.0616,-0.0388 -0.134384,-0.015 -0.174594,0.0587 -0.03798,0.0687 -0.154822,0.12439 -0.259691,0.12439 -0.104919,0 -0.230065,0.0398 -0.278212,0.0885 -0.04815,0.0488 -0.149182,0.0646 -0.224532,0.0353 -0.1229,-0.0475 -0.132611,-0.28355 -0.09396,-2.29139 0.05131,-2.66812 0.05021,-2.72583 -0.05446,-2.83154 -0.13601,-0.13734 -0.09453,-0.19555 0.178235,-0.25066 0.202447,-0.0409 0.29169,-0.12852 0.402542,-0.39479 0.105962,-0.25475 0.191198,-0.34256 0.333072,-0.34318 0.104877,-5e-4 0.19125,0.0471 0.191952,0.10601 8.7e-4,0.0717 0.02173,0.0767 0.06355,0.015 0.11815,-0.17411 0.375172,-0.2079 0.641993,-0.0841 0.14723,0.0683 0.397317,0.15667 0.555721,0.19597 0.355669,0.0889 0.535884,0.43906 0.262964,0.5111 -0.216658,0.0572 -0.221069,0.19597 -0.0062,0.19597 0.300127,0 0.454081,0.24963 0.391977,0.63558 -0.03082,0.19157 -0.05376,0.40603 -0.05092,0.47664 0.0028,0.0703 0.0032,0.27477 8.25e-4,0.45379 -0.0032,0.23566 0.04941,0.37324 0.190111,0.49849 0.106907,0.0953 0.154421,0.15348 0.105607,0.12946 -0.202719,-0.0994 -0.287688,0.11408 -0.336707,0.84617 -0.105608,1.57783 -0.05713,2.04662 0.219228,2.11953 0.163344,0.0432 0.190034,-0.0293 0.277092,-0.75344 0.01701,-0.14128 0.03656,0.34717 0.04355,1.08523 0.008,0.84274 -0.02348,1.43147 -0.0846,1.58275 -0.139675,0.34578 -0.29024,7.00849 -0.161897,7.16454 0.05191,0.0632 0.519729,0.18086 1.040176,0.26178 0.520229,0.0809 1.000606,0.1683 1.067475,0.1941 0.104329,0.0403 0.1171,0.79793 0.08992,5.32452 -0.02672,4.44993 -0.01301,5.30036 0.08781,5.42319 0.06571,0.0801 0.175954,0.12383 0.244923,0.0972 0.06951,-0.027 0.174311,0.0218 0.235184,0.10957 0.0604,0.0873 0.565817,0.36119 1.123198,0.60921 0.900415,0.40066 1.018786,0.47804 1.061487,0.69356 0.0395,0.19953 0.09749,0.24739 0.326701,0.26966 l 0.278651,0.027 0.0086,4.2349 c 0.0048,2.32921 0.01433,4.28071 0.02117,4.33674 0.0067,0.0559 0.155343,0.11388 0.330135,0.12852 0.290505,0.024 0.321994,0.0522 0.366842,0.32601 0.08388,0.51203 0.153283,0.10975 0.197332,-1.14359 0.0229,-0.65247 0.05315,-1.19706 0.06714,-1.21013 0.01391,-0.015 0.349559,-0.0507 0.745723,-0.0835 0.396162,-0.0332 0.930024,-0.0852 1.18639,-0.11594 l 0.466056,-0.0559 0.04238,-1.12073 c 0.02842,-0.75204 0.07952,-1.1658 0.155199,-1.2577 0.07021,-0.0854 0.278257,-0.14653 0.550817,-0.16266 0.425988,-0.025 0.438718,-0.0334 0.464506,-0.30337 0.02086,-0.2181 0.127037,-0.3604 0.495017,-0.66297 0.257651,-0.21194 0.493578,-0.38746 0.524268,-0.38997 0.03068,-0.001 0.227378,-0.0225 0.437134,-0.0447 0.495024,-0.0518 0.573863,-0.0507 0.954479,0.015 0.492891,0.0839 0.570833,-0.0349 0.570833,-0.86872 0,-0.63868 0.01938,-0.72558 0.188313,-0.84504 0.10362,-0.0732 0.33572,-0.13321 0.515831,-0.13321 0.282578,0 0.340003,-0.0334 0.419063,-0.24507 0.128472,-0.34355 0.374337,-0.46975 0.875384,-0.44931 0.305871,0.0112 0.464071,-0.0216 0.542446,-0.11689 0.09115,-0.1107 0.224194,-0.12439 0.755029,-0.0771 0.354376,0.0315 0.739695,0.0949 0.856193,0.14071 0.116508,0.046 0.368028,0.0981 0.558933,0.11595 l 0.347106,0.0328 0.05508,-1.0905 c 0.03029,-0.59981 0.05527,-1.79065 0.05546,-2.64634 1.91e-4,-0.85571 0.0365,-1.65177 0.08066,-1.76913 0.05402,-0.14353 0.157003,-0.22231 0.314435,-0.24085 0.311417,-0.0364 0.349117,-0.2033 0.359445,-1.59023 l 0.0084,-1.13494 0.275407,-0.12064 c 0.151457,-0.0668 0.34396,-0.1424 0.427755,-0.16848 0.12395,-0.0388 0.141938,-0.10394 0.09649,-0.34845 -0.03661,-0.19723 -0.02343,-0.30055 0.03832,-0.30055 0.0518,0 0.09414,0.0978 0.09414,0.21728 0,0.40603 0.32284,0.85023 1.391104,1.91419 0.586522,0.5841 1.066538,1.10386 1.06672,1.15495 3.14e-4,0.0906 0.62807,0.39237 0.816414,0.39237 0.05205,0 0.142898,-0.0587 0.201917,-0.13039 0.09572,-0.11633 0.124319,-0.11483 0.265752,0.015 0.09307,0.0852 0.428873,0.18293 0.814031,0.23741 l 0.655624,0.0927 -0.03345,4.34187 -0.03345,4.34186 0.24533,0.009 c 0.134901,0.004 0.353162,8.6e-4 0.48499,-0.006 0.131856,-0.009 0.315158,0.0529 0.407376,0.13696 0.123121,0.11257 0.363303,0.16548 0.904275,0.19995 0.829507,0.0529 0.94849,0.10075 0.94849,0.38291 0,0.3484 0.146341,0.38262 1.639209,0.38329 1.127492,4.7e-4 1.428472,-0.0233 1.46403,-0.11726 0.02463,-0.0643 0.07506,-0.38093 0.112114,-0.70256 l 0.06726,-0.58474 0.01228,0.51331 c 0.01053,0.43886 0.150138,0.94127 0.190038,0.68446 0.02119,-0.13621 0.04387,-0.40556 0.05955,-0.70585 0.02326,-0.44597 0.183978,-0.32002 0.183978,0.14409 0,0.64651 0.106069,0.85152 0.435547,0.8421 0.192849,-0.004 0.310576,0.0469 0.395871,0.17674 0.09713,0.14747 0.205217,0.18462 0.540358,0.18462 0.734903,0 0.746763,0.019 0.746763,1.24355 0,0.98615 0.01196,1.06634 0.159112,1.06634 0.08751,0 0.207615,-0.0591 0.266938,-0.13115 0.09604,-0.11689 0.127275,-0.11332 0.28577,0.0328 0.09789,0.0902 0.261799,0.18966 0.364278,0.22109 0.102503,0.0315 0.208248,0.12664 0.234992,0.21175 0.0372,0.11839 0.171513,0.16754 0.571663,0.20996 0.287668,0.03 0.553806,0.024 0.59139,-0.015 0.03761,-0.0379 0.109433,-1.97273 0.159659,-4.29953 0.07548,-3.4979 0.112668,-4.2527 0.21472,-4.35886 0.103705,-0.10788 0.535631,-0.13077 2.70546,-0.1439 1.420102,-0.009 2.785563,-0.0411 3.034316,-0.0724 0.367633,-0.0463 0.538086,-0.021 0.910551,0.13921 0.252019,0.10788 0.487192,0.23666 0.522683,0.28616 0.03547,0.0495 0.03897,1.90915 0.0078,4.13251 -0.03867,2.75793 -0.02885,4.0424 0.0308,4.0424 0.05773,0 0.10855,-1.22814 0.1495,-3.6146 0.03824,-2.22436 0.09522,-3.65581 0.148211,-3.72161 0.04736,-0.0589 0.232604,-0.10713 0.411704,-0.10713 0.375456,0 0.501007,-0.15779 0.501007,-0.62988 0,-0.47795 0.158064,-0.56767 1.001805,-0.56904 0.872489,-8.4e-4 1.094699,-0.0506 1.15948,-0.25672 0.06254,-0.19889 0.773706,-0.2928 1.991049,-0.26285 1.574968,0.0388 1.649591,0.0477 1.678268,0.19786 0.05022,0.26301 0.397304,0.39235 1.209638,0.45082 0.439048,0.0319 0.870993,0.0782 0.959898,0.103 0.156452,0.0443 0.159978,0.14766 0.110967,3.24205 -0.02789,1.75793 -0.02162,3.21448 0.014,3.23666 0.05723,0.0358 0.189368,-1.572 0.305453,-3.71534 0.129621,-2.39289 0.291506,-3.42513 0.574393,-3.66213 0.06194,-0.0518 0.674886,-0.0976 1.461514,-0.10919 0.745212,-0.009 1.402579,-0.037 1.460815,-0.0584 0.07015,-0.0255 0.105897,-0.22843 0.105897,-0.59979 0,-0.66947 0.09962,-0.65909 0.115796,0.0113 0.0061,0.25728 0.04261,0.49982 0.0809,0.53899 0.03828,0.0392 0.667356,0.12927 1.397883,0.19954 l 1.328267,0.12814 0.118209,0.34219 c 0.06511,0.18822 0.141467,0.76532 0.169819,1.28244 l 0.05146,0.94015 0.46612,0.0644 c 0.256305,0.0353 0.55483,0.0856 0.663305,0.11107 l 0.197216,0.0467 -0.0216,5.29542 c -0.02245,5.55001 -0.0216,5.56614 0.336535,5.56125 0.07585,-8.8e-4 0.233281,-0.0756 0.349782,-0.16623 l 0.211859,-0.16436 0.0592,-3.73907 c 0.03234,-2.05647 0.07896,-3.79116 0.103243,-3.85482 0.02858,-0.0756 0.188395,-0.11557 0.459987,-0.11557 0.250685,0 0.454637,-0.0469 0.513242,-0.11839 0.06285,-0.0765 0.106788,-0.66664 0.124064,-1.66921 0.01525,-0.85298 0.05329,-1.57734 0.0852,-1.60969 0.03212,-0.0323 0.05414,0.67941 0.04931,1.58155 -0.0043,0.90217 0.01547,1.67977 0.0448,1.72797 0.02943,0.048 0.239825,0.0876 0.467358,0.0876 0.227555,0 0.439671,0.0426 0.471386,0.0942 0.0319,0.0518 0.05285,0.42723 0.04716,0.83415 -0.01364,0.89146 0.04717,1.03208 0.354257,0.82888 0.183355,-0.12139 0.288955,-0.12945 0.698366,-0.0529 0.26535,0.0495 0.52564,0.0617 0.57853,0.0274 0.1556,-0.1015 0.50977,-0.0882 0.64687,0.0238 0.0699,0.0568 0.3454,0.12533 0.61221,0.15159 0.2668,0.0265 0.52417,0.0719 0.57203,0.10188 0.0555,0.0347 0.0868,0.80863 0.0868,2.14527 v 2.091 h 0.37094 c 0.20402,0 0.40793,-0.0482 0.45319,-0.10695 0.14878,-0.19345 0.44697,-2.08549 0.44697,-2.83601 0,-0.72838 0.002,-0.73585 0.21246,-0.73585 0.2121,0 0.21235,7.9e-4 0.15866,0.62025 -0.0296,0.34116 -0.087,0.65685 -0.12756,0.70152 -0.15245,0.16754 -0.0759,0.56695 0.1456,0.75932 0.22842,0.19826 0.27135,0.42595 0.1655,0.87787 -0.0778,0.33305 0.11171,0.54874 0.48277,0.54874 0.14455,0 0.33518,0.0662 0.42377,0.14728 0.12238,0.11201 0.32802,0.14972 0.85547,0.15723 0.38191,0.004 0.78258,0.0582 0.8903,0.11595 0.10806,0.0584 0.25115,0.0842 0.31873,0.0584 0.0676,-0.0261 0.18745,0.0285 0.26645,0.12176 0.1265,0.14916 0.25074,0.16905 1.03573,0.16811 1.14298,-8.6e-4 1.25731,-0.034 1.31546,-0.37188 0.0253,-0.14766 0.0739,-1.19175 0.10806,-2.31999 l 0.062,-2.0514 0.25422,-0.079 c 0.13997,-0.0433 0.37439,-0.13077 0.52122,-0.1943 0.14692,-0.0636 0.36379,-0.11558 0.48206,-0.11558 0.1903,0 0.22173,-0.0448 0.27295,-0.38987 0.0402,-0.27216 0.11725,-0.42909 0.2544,-0.51986 0.10807,-0.0713 0.20833,-0.23138 0.22271,-0.35532 0.0295,-0.25323 0.22468,-0.33807 0.81006,-0.35194 l 0.36013,-0.009 0.0183,-2.16022 c 0.008,-1.18815 0.0193,-2.418 0.0212,-2.73292 9.9e-4,-0.315 0.041,-0.60793 0.0877,-0.65103 0.0749,-0.0694 0.62772,-0.18312 1.69481,-0.3491 0.31919,-0.0497 0.34145,-0.0722 0.38135,-0.38821 0.0232,-0.18462 0.0852,-0.34984 0.13791,-0.36723 0.13863,-0.0461 0.21458,0.21794 0.11603,0.40385 -0.0466,0.0876 -0.0845,0.17655 -0.0845,0.19764 0,0.10957 0.58196,0.15911 2.61112,0.22224 1.25882,0.0392 2.26627,0.10619 2.31362,0.15404 0.053,0.0533 0.0899,1.96559 0.10066,5.20752 l 0.0169,5.12277 0.64349,-0.004 c 0.35388,-0.001 0.70069,-0.0278 0.77067,-0.0552 0.099,-0.0381 0.14042,-0.2837 0.18615,-1.10143 0.0323,-0.57862 0.0798,-1.073 0.10475,-1.09859 0.0251,-0.0255 0.38863,-0.0677 0.80742,-0.0933 0.53129,-0.0328 0.78424,-0.0842 0.83682,-0.17017 0.0646,-0.10488 0.11338,-0.10075 0.33582,0.0319 0.19359,0.11557 0.52587,0.17017 1.29588,0.21306 l 1.03553,0.0576 0.0513,1.11219 c 0.0281,0.61174 0.0569,1.12481 0.0637,1.14027 0.006,0.015 0.13627,0.0189 0.2875,0.009 0.57638,-0.04 1.24997,0.009 1.24997,0.0912 0,0.0469 -0.16206,0.0902 -0.36017,0.0962 l -0.36021,0.0113 0.38142,0.0687 c 0.2097,0.0375 0.53897,0.0713 0.73172,0.0749 0.2738,0.004 0.37997,0.0518 0.48562,0.21471 0.0884,0.13584 0.23144,0.21764 0.41227,0.23526 l 0.27707,0.027 0.0231,1.68971 c 0.0133,1.02931 0.0553,1.68964 0.10603,1.68964 0.0457,0 0.0827,-0.11408 0.0827,-0.25361 0,-0.30333 0.19144,-0.43033 0.65121,-0.432 0.49284,-8.6e-4 0.6854,-0.0809 0.74083,-0.30385 0.028,-0.11201 0.12653,-0.2443 0.21906,-0.29436 0.17359,-0.094 0.23435,-0.34165 0.0837,-0.34165 -0.0468,0 -0.0848,-0.0771 -0.0848,-0.17111 0,-0.0938 0.0566,-0.17111 0.12562,-0.17111 0.13391,0 0.15076,-0.0557 0.29943,-0.98385 0.13436,-0.83844 0.33955,-1.94463 0.3877,-2.089 0.1237,-0.37179 0.31253,0.55535 0.74963,3.68393 0.0479,0.34445 0.0858,0.40295 0.2838,0.44119 0.12563,0.0242 0.29297,0.009 0.37195,-0.0334 0.0789,-0.0428 0.27959,-0.0779 0.44581,-0.0779 0.26204,0 0.30212,0.0268 0.30212,0.20435 0,0.16567 0.056,0.21496 0.29427,0.26008 0.16191,0.0308 0.32712,0.11483 0.36726,0.18744 0.0612,0.10957 0.0973,0.0942 0.21981,-0.0946 0.11543,-0.17787 0.12534,-0.25256 0.0462,-0.3489 -0.0786,-0.0955 -0.0751,-0.15404 0.0158,-0.26489 0.0907,-0.11069 0.0929,-0.15009 0.0108,-0.17824 -0.0582,-0.0189 -0.10604,-0.10769 -0.10604,-0.19576 0,-0.0882 -0.0624,-0.19514 -0.13894,-0.23826 -0.0766,-0.0431 -0.11205,-0.12252 -0.0789,-0.17674 0.0328,-0.0542 0.0911,-0.079 0.12904,-0.0554 0.0378,0.0238 0.16424,-0.0328 0.28077,-0.12533 0.11653,-0.0927 0.31169,-0.20644 0.43369,-0.25338 0.13995,-0.0537 0.22182,-0.14991 0.22182,-0.26105 0,-0.0968 0.0476,-0.19348 0.10583,-0.2149 0.31825,-0.11727 1.96569,-0.2799 2.97096,-0.29352 0.17751,-8.4e-4 0.30215,-0.0379 0.27694,-0.0796 -0.0533,-0.0867 0.18829,-0.84553 0.28917,-0.90842 0.0373,-0.0234 0.17011,0.009 0.29496,0.0765 0.26757,0.14015 0.8669,0.0882 1.07372,-0.0931 0.0927,-0.0811 0.3054,-0.11595 0.63677,-0.10357 0.47029,0.0169 0.70475,-0.055 1.04611,-0.32165 0.0698,-0.0546 0.34586,-0.0931 0.61317,-0.0856 0.44573,0.0113 0.5161,0.043 0.84745,0.36453 0.35975,0.34927 0.36478,0.35102 1.17206,0.40305 0.44583,0.0285 0.87066,0.0756 0.94404,0.10394 0.0924,0.036 0.15122,0.21981 0.19171,0.60224 0.0603,0.56943 0.14307,0.6741 0.29914,0.37944 0.0499,-0.0942 0.0736,-0.17111 0.0531,-0.17111 -0.0208,0 0.0132,-0.22135 0.0787,-0.49197 0.0641,-0.27057 0.12239,-0.89617 0.12947,-1.39024 0.006,-0.49408 0.0373,-1.01382 0.0671,-1.15497 0.048,-0.23047 0.0906,-0.25935 0.41365,-0.28293 0.33843,-0.0248 0.35977,-0.0418 0.35977,-0.28605 0,-0.18779 0.0471,-0.27218 0.16946,-0.30454 0.10637,-0.0282 0.16951,-0.1167 0.16951,-0.23817 0,-0.28246 0.19711,-0.40278 0.61001,-0.37235 l 0.36447,0.027 0.025,-0.57512 c 0.0211,-0.48211 0.0538,-0.59076 0.20309,-0.67136 0.23187,-0.12533 0.34912,0.0617 0.40741,0.65046 l 0.0424,0.42778 0.61667,0.0557 c 0.71867,0.0651 0.86634,0.15891 0.86634,0.55372 0,0.15892 0.0381,0.289 0.0849,0.289 0.0466,0 0.0849,-0.0578 0.0849,-0.12852 0,-0.0953 0.099,-0.12834 0.38134,-0.12834 0.3248,0 0.38128,0.0253 0.38128,0.17111 0,0.31209 0.51431,0.68443 0.94545,0.68443 0.16608,0 0.1708,-0.0418 0.14278,-1.27036 -0.0203,-0.8879 -0.0626,-1.31114 -0.14056,-1.4059 -0.0931,-0.11295 -0.0885,-0.17055 0.0253,-0.34678 0.21616,-0.33295 0.30674,-1.61142 0.29199,-4.12071 l -0.0133,-2.30995 0.35961,-0.77 c 0.19782,-0.42348 0.51091,-1.09309 0.69588,-1.48802 0.25413,-0.54258 0.32379,-0.7811 0.28507,-0.97641 -0.0334,-0.1683 -0.007,-0.30616 0.0715,-0.3953 0.0941,-0.10469 0.13612,-0.53597 0.1791,-1.84686 0.0311,-0.94051 0.0769,-1.74409 0.10158,-1.78568 0.11,-0.18368 0.26994,0.38293 0.27455,0.97403 0.002,0.35293 0.043,0.79563 0.089,0.98388 0.0463,0.18823 0.0978,0.6615 0.11471,1.05169 0.017,0.3902 0.05,0.72921 0.0739,0.75341 0.0394,0.0396 1.76724,0.21121 2.39264,0.23753 l 0.25418,0.009 0.0224,-0.5989 c 0.012,-0.32941 0.0569,-0.67589 0.0994,-0.77002 0.0425,-0.0938 0.10015,-0.54633 0.12756,-1.00497 0.0474,-0.78296 0.16373,-1.26218 0.30598,-1.26218 0.13156,0 0.15942,0.29592 0.1212,1.28971 -0.0238,0.61732 -9.9e-4,1.17364 0.0543,1.38869 0.0514,0.19723 0.089,0.47423 0.0832,0.61538 -0.005,0.14127 -0.0132,0.37218 -0.0171,0.51338 -0.005,0.15798 0.27267,0.83204 0.71927,1.75381 l 0.72525,1.49719 -0.0679,2.18165 c -0.041,1.32291 -0.0362,2.3332 0.012,2.56661 0.0437,0.21177 0.0871,1.71321 0.0959,3.33663 0.0218,4.01957 0.012,3.84992 0.21762,3.84992 0.18102,0 0.23658,-0.21982 0.0699,-0.27597 -0.0548,-0.0189 -0.0713,-0.0801 -0.0364,-0.13659 0.0859,-0.14015 0.22103,-0.043 0.22103,0.15967 0,0.19032 0.43441,0.34908 0.49049,0.17917 0.0205,-0.0619 0.14617,-8.6e-4 0.32516,0.15761 0.16053,0.1424 0.3668,0.25867 0.45838,0.25867 0.0917,0 0.1665,0.0351 0.1665,0.078 0,0.11632 0.23907,0.0587 0.42592,-0.10263 0.0904,-0.0782 0.22268,-0.11951 0.294,-0.0919 0.15405,0.0599 0.37315,-0.10601 0.46603,-0.35277 0.0527,-0.13903 0.14925,-0.18068 0.45046,-0.19389 0.22601,-0.009 0.54131,-0.10563 0.76704,-0.23289 0.21081,-0.11895 0.48082,-0.21603 0.59998,-0.21603 0.18434,0 0.21677,0.0385 0.21677,0.25667 0,0.1409 0.0383,0.25663 0.0847,0.25663 0.0468,0 0.0851,-0.048 0.0859,-0.10695 9.1e-4,-0.0739 0.0206,-0.0782 0.0637,-0.015 0.0342,0.0518 0.14722,0.13941 0.25105,0.19453 0.15872,0.0842 0.18092,0.0797 0.13952,-0.0293 -0.0658,-0.17336 0.18911,-0.26556 0.35339,-0.12777 0.10604,0.0886 0.14925,0.0796 0.24464,-0.0522 0.0638,-0.0882 0.10238,-0.23043 0.0861,-0.31642 -0.0164,-0.0857 0.0255,-0.17768 0.0932,-0.20393 0.0982,-0.0379 0.12432,-0.26719 0.12993,-1.12932 0.004,-0.59493 0.0513,-1.25468 0.10603,-1.46622 0.0954,-0.36956 0.11471,-0.38742 0.49552,-0.45731 0.37529,-0.0688 0.39866,-0.0895 0.43826,-0.38543 0.023,-0.17204 0.0471,-0.50518 0.0533,-0.7405 0.0132,-0.50532 0.10613,-0.63828 0.34186,-0.4898 0.28505,0.17993 0.81352,0.1304 1.03899,-0.0976 0.18658,-0.18843 0.2302,-0.19618 0.63469,-0.11239 0.23888,0.0495 0.41765,0.11708 0.39721,0.15048 -0.11277,0.18443 0.62228,0.21749 0.85667,0.0385 0.18957,-0.14485 0.77455,-0.16473 1.26609,-0.0432 0.59792,0.14804 2.001,0.19305 2.35318,0.0756 0.24531,-0.0816 0.3447,-0.0833 0.42041,-0.006 0.12223,0.12345 0.86052,0.13715 0.78557,0.015 -0.11784,-0.19241 0.99411,-0.009 1.19891,0.19807 0.0318,0.0319 0.13937,0.0587 0.2388,0.0587 0.28009,0 0.38422,0.16849 0.38422,0.62176 0,0.37905 0.0158,0.41151 0.17138,0.36154 0.26658,-0.0856 0.66743,0.0385 0.77378,0.23903 0.0602,0.11351 0.0931,0.63245 0.0877,1.38391 -0.005,0.7047 0.0275,1.255 0.0787,1.32988 0.066,0.0962 0.0983,0.1015 0.13066,0.0208 0.0523,-0.1304 0.36353,-0.1379 0.53729,-0.015 0.0959,0.0689 0.054,0.0788 -0.16946,0.0394 -0.28601,-0.0499 -0.29001,-0.0473 -0.11123,0.0796 0.2184,0.1546 0.87381,0.23866 0.87381,0.1122 0,-0.0475 0.0566,-0.0643 0.12592,-0.0379 0.0743,0.0285 0.1628,-0.0208 0.21613,-0.12158 0.0498,-0.0936 0.1255,-0.14841 0.16839,-0.12176 0.0863,0.0538 0.50658,-0.19577 0.50658,-0.30095 0,-0.0364 -0.0476,-0.0643 -0.10604,-0.0621 -0.29492,0.0113 -0.48727,-0.0319 -0.48727,-0.10844 0,-0.0469 0.0894,-0.0856 0.19873,-0.0856 0.10927,0 0.26837,-0.078 0.35354,-0.1728 0.14351,-0.15985 0.18072,-0.35317 0.23619,-1.22197 0.0108,-0.1788 0.0693,-0.35549 0.12846,-0.39241 0.12888,-0.0807 0.21341,-0.9357 0.14174,-1.43811 -0.0399,-0.28166 -0.08,-0.34796 -0.18514,-0.30721 -0.14424,0.0559 -0.14382,0.0539 0.0945,-0.41806 0.1497,-0.29678 0.15091,-0.3312 0.018,-0.61348 -0.0771,-0.16436 -0.16404,-0.41755 -0.19268,-0.56247 -0.0495,-0.25008 0.002,-0.31021 0.24078,-0.27486 0.0329,0.004 0.0825,-0.11576 0.11,-0.26785 0.0654,-0.35993 0.0877,-4.34696 0.0338,-6.0518 -0.0232,-0.7293 -0.0108,-1.79547 0.0284,-2.36912 0.0857,-1.27053 -0.0246,-3.0888 -0.19327,-3.19402 -0.0974,-0.0608 -0.0964,-0.10919 0.006,-0.30469 0.0678,-0.12777 0.11158,-0.30113 0.0976,-0.38513 -0.0433,-0.25852 0.28638,-0.36807 1.22934,-0.40856 0.2401,-0.009 0.27799,-0.0464 0.3272,-0.31106 0.0595,-0.31984 0.0938,-0.33507 0.68759,-0.30376 0.34358,0.0189 0.35688,0.009 0.4444,-0.30933 0.0496,-0.18049 0.0903,-0.41186 0.0908,-0.51436 5.6e-4,-0.21201 0.36843,-0.54087 0.60512,-0.54087 0.12726,0 0.15797,-0.0651 0.15797,-0.33524 0,-0.46382 0.0701,-0.60587 0.30015,-0.60587 0.10832,0 0.29509,-0.0375 0.41468,-0.0833 0.20569,-0.079 0.2174,-0.1167 0.21829,-0.70579 5.2e-4,-0.34235 0.0248,-0.76835 0.054,-0.94675 0.0508,-0.3098 0.0574,-0.31554 0.14985,-0.12852 0.0723,0.14672 0.1693,0.19597 0.38477,0.19597 0.24754,0 0.29747,-0.0358 0.35507,-0.25324 0.0457,-0.17129 0.0337,-0.27467 -0.0362,-0.31948 -0.15906,-0.10206 -0.60831,-0.0809 -0.722,0.0338 -0.079,0.0797 -0.10148,0.009 -0.10148,-0.31271 0,-0.39697 0.006,-0.40903 0.155,-0.27374 0.10226,0.0932 0.30431,0.14165 0.59315,0.14165 0.40751,0 0.4391,-0.015 0.4509,-0.21387 0.006,-0.11745 0.0165,-0.26201 0.0213,-0.32081 0.004,-0.0767 -0.1706,-0.10713 -0.62707,-0.10713 h -0.63556 l -0.0265,-0.27809 c -0.0251,-0.26548 0.0853,-0.37385 0.196,-0.19241 0.076,0.12402 0.69499,0.10601 0.73934,-0.0214 0.0209,-0.0587 0.0132,-0.2031 -0.0164,-0.32084 -0.0475,-0.19075 -0.099,-0.21463 -0.47299,-0.22092 l -0.41957,-0.006 -0.026,-0.50269 c -0.0456,-0.88142 -0.0344,-0.89486 0.74482,-0.89486 0.59328,0 0.68452,0.0208 0.76682,0.17637 0.12785,0.24135 0.43904,0.18649 0.51497,-0.0908 0.0323,-0.11764 0.0627,-0.7144 0.0683,-1.32616 0.008,-1.11428 0.0806,-1.45747 0.26199,-1.27408 0.0569,0.0576 0.099,0.5914 0.10941,1.39275 0.018,1.38789 0.041,1.45989 0.46191,1.4628 0.1302,8.7e-4 0.19061,0.0529 0.19061,0.16323 0,0.16961 -0.15592,0.26579 -0.4306,0.26579 -0.16456,0 -0.19665,0.0752 -0.16403,0.38499 0.0276,0.26434 0.17745,0.39607 0.41794,0.36789 0.17005,-0.0208 0.21909,0.0113 0.21909,0.14259 0,0.12965 -0.0825,0.18481 -0.36018,0.24031 -0.29788,0.0595 -0.36015,0.10563 -0.36015,0.26751 0,0.29587 0.27975,0.51682 0.50221,0.39655 0.15466,-0.0835 0.18841,-0.0668 0.26368,0.13321 0.0474,0.12589 0.18056,0.34235 0.29579,0.48052 0.27191,0.32627 0.26497,0.47708 -0.0235,0.51057 -0.29944,0.0349 -0.36095,0.35149 -0.11894,0.61296 0.11302,0.12251 0.19036,0.36445 0.23013,0.72188 0.0404,0.36586 0.10431,0.56191 0.19899,0.61305 0.0767,0.0415 0.44222,0.11764 0.81245,0.1698 0.37026,0.0518 0.71237,0.13415 0.76041,0.18274 0.0488,0.0495 0.079,0.3963 0.0689,0.78961 -0.0269,1.01369 -0.0108,1.05607 0.43953,1.12418 0.41278,0.0627 0.46911,0.11445 0.54844,0.50599 0.0523,0.2577 0.0566,0.2595 0.64322,0.26945 0.32489,0.004 0.65555,0.04 0.73489,0.0762 0.0793,0.0364 0.19143,0.037 0.24909,8.5e-4 0.16301,-0.10151 2.04669,-0.12102 2.16462,-0.0223 0.0569,0.0476 0.17882,0.0625 0.27111,0.0328 0.23533,-0.0752 3.0678,-0.103 3.11227,-0.0308 0.0199,0.0328 0.12135,0.0373 0.22534,0.009 0.1041,-0.0274 0.30705,-0.0576 0.45145,-0.0675 0.14441,-0.009 0.30682,-0.045 0.36096,-0.079 0.0541,-0.0338 0.16476,-0.0413 0.24584,-0.0169 0.29093,0.0874 1.3496,0.0749 2.2097,-0.0263 0.76089,-0.0895 0.90181,-0.0859 1.07413,0.0283 0.10904,0.0722 0.21074,0.0968 0.22586,0.0552 0.0158,-0.0418 0.46605,-0.103 1.00205,-0.13621 0.53596,-0.0328 0.99734,-0.0732 1.02519,-0.0895 0.028,-0.0169 0.4549,-0.0687 0.9489,-0.11557 0.60865,-0.0583 1.00157,-0.14184 1.21907,-0.25958 0.17659,-0.0955 0.37583,-0.17373 0.44273,-0.17373 0.0671,0 0.18904,-0.0617 0.27136,-0.13697 0.0824,-0.0752 0.19018,-0.11107 0.23966,-0.0807 0.0635,0.0394 0.0903,12.95447 0.0903,43.64093 v 43.58602 H -8.451483 V 207.2421 Z M 122.3782,177.26574 c 0.012,-0.43462 0.0513,-0.82928 0.0862,-0.8769 0.0349,-0.0477 0.0693,-0.26558 0.0761,-0.48434 0.0108,-0.35682 -0.004,-0.39326 -0.15467,-0.35367 -0.0919,0.024 -0.16953,0.10713 -0.17231,0.18387 -0.0671,1.86161 -0.0595,2.32137 0.0368,2.32137 0.0745,0 0.11157,-0.23094 0.12757,-0.79038 z m 40.43114,-1.26295 c 0,-0.0469 -0.0574,-0.0855 -0.12711,-0.0855 -0.0698,0 -0.12696,0.0385 -0.12696,0.0855 0,0.0469 0.0573,0.0856 0.12696,0.0856 0.0699,0 0.12711,-0.0388 0.12711,-0.0856 z m 2.63887,-0.17111 c 0.24034,0 0.37236,-0.11332 0.2895,-0.24878 -0.0272,-0.0443 -0.23008,-0.019 -0.46867,0.0583 -0.3387,0.10919 -0.40237,0.15872 -0.32546,0.25237 0.0661,0.0807 0.12268,0.0893 0.18405,0.0274 0.0486,-0.049 0.19282,-0.0891 0.32059,-0.0891 z M 5.0220915,174.67669 c 0,-0.0704 -0.061882,-0.12852 -0.1374719,-0.12852 -0.1126086,0 -0.1184046,0.0233 -0.031993,0.12852 0.1328457,0.16154 0.1694784,0.16154 0.1694774,0 z M -6.820512,174.42717 c 0.01171,-0.0431 -0.02649,-0.0944 -0.08472,-0.11407 -0.05824,-0.019 -0.105931,0.0285 -0.105931,0.10694 0,0.14485 0.151922,0.15085 0.190667,0.006 z m 11.3340606,-0.22101 c 0,-0.0469 -0.038117,-0.0856 -0.084743,-0.0856 -0.046583,0 -0.084743,0.0385 -0.084743,0.0856 0,0.0469 0.038128,0.0857 0.084743,0.0857 0.046604,0 0.084743,-0.0385 0.084743,-0.0857 z m -0.8897739,-1.06942 c 0,-0.0469 -0.1430004,-0.0976 -0.3177872,-0.1122 -0.2980001,-0.0249 -0.3965198,0.0469 -0.2572506,0.18743 0.088257,0.0891 0.5750517,0.0251 0.5750517,-0.0752 z m 1.364848,-0.19892 c 0.00859,-0.17918 -0.025859,-0.27171 -0.1020403,-0.27171 -0.1321217,0 -0.2486601,0.37044 -0.1613865,0.51299 0.1040814,0.16999 0.2495786,0.037 0.263429,-0.24128 z m -0.8149356,0.11445 c 0.057509,-0.0702 0.080479,-0.19072 0.050988,-0.2683 -0.049118,-0.12927 -0.067747,-0.12795 -0.2213355,0.0113 -0.092253,0.0842 -0.1677209,0.20499 -0.1677209,0.26833 0,0.15385 0.2076883,0.14654 0.3380759,-0.0113 z m 1.2720135,-0.13452 c 0,-0.0445 -0.057198,-0.0807 -0.127111,-0.0807 -0.1310442,0 -0.1683439,0.10113 -0.072904,0.19723 0.067694,0.0683 0.2000391,-0.009 0.2000391,-0.1167 z M 3.4739158,172.324 c 0.02848,0 0.1216727,0.0642 0.2070823,0.14184 0.2177365,0.1989 0.5783338,0.0345 0.5783338,-0.26334 0,-0.27248 -0.1182468,-0.34083 -0.3583766,-0.2071 -0.1058435,0.0591 -0.2591575,0.097 -0.3407243,0.0842 -0.081574,-0.0112 -0.1483011,0.015 -0.1483011,0.0619 0,0.0467 -0.081435,0.0972 -0.1809717,0.11238 -0.099516,0.015 -0.2375784,0.11408 -0.3067764,0.21965 -0.1196959,0.18293 -0.1118586,0.1983 0.1597697,0.31414 l 0.2856151,0.12195 0.0263,-0.29286 c 0.014331,-0.16098 0.04959,-0.29274 0.078073,-0.29274 z m 12.3947912,0.43284 c 0,-0.0443 -0.03812,-0.1045 -0.08474,-0.13321 -0.0466,-0.0293 -0.08474,0.006 -0.08474,0.0807 0,0.0732 0.03814,0.13321 0.08474,0.13321 0.04658,0 0.08474,-0.0362 0.08474,-0.0807 z m 0,-0.60391 c 0,-0.0942 -0.03812,-0.17111 -0.08474,-0.17111 -0.0466,0 -0.08474,0.0767 -0.08474,0.17111 0,0.0938 0.03814,0.17111 0.08474,0.17111 0.04658,0 0.08474,-0.0767 0.08474,-0.17111 z m -10.9950284,-0.0442 c -0.03121,-0.12439 -0.2128913,-0.10244 -0.2569122,0.0308 -0.024753,0.0747 0.017124,0.10413 0.120058,0.0842 0.086914,-0.0169 0.1485128,-0.0687 0.136867,-0.11501 z m 11.0307354,-0.77271 c 0.0599,-0.24102 -0.0043,-0.41084 -0.126387,-0.33466 -0.100819,0.0628 -0.103792,0.55245 -0.0033,0.55245 0.04154,0 0.0999,-0.0981 0.129713,-0.21783 z M 195.94377,167.8752 c 0,-0.0469 -0.0572,-0.0856 -0.12697,-0.0856 -0.0699,0 -0.1271,0.0385 -0.1271,0.0856 0,0.0469 0.0573,0.0857 0.1271,0.0857 0.0698,0 0.12697,-0.0387 0.12697,-0.0857 z m -0.7485,-0.33325 c 0.0158,-0.0422 0.44768,-0.0987 0.96039,-0.1259 0.51263,-0.027 1.19903,-0.10901 1.52531,-0.18199 0.32624,-0.073 1.01265,-0.14747 1.52534,-0.16567 0.51271,-0.019 0.9914,-0.0568 1.06377,-0.0865 0.0723,-0.0293 0.19838,-0.16736 0.28001,-0.30706 0.13318,-0.22759 0.15182,-0.6077 0.18192,-3.68984 0.0263,-2.69714 0.0573,-3.45132 0.14382,-3.50674 0.11543,-0.0735 0.36396,-0.0901 1.64923,-0.10582 0.42698,-0.004 0.80679,-0.0403 0.84388,-0.0777 0.0373,-0.0373 0.0585,-0.40398 0.0476,-0.81487 -0.0133,-0.50427 0.0158,-0.79133 0.0882,-0.88304 0.0735,-0.0927 0.37469,-0.16736 0.94559,-0.2352 0.46068,-0.0546 0.86702,-0.11764 0.90296,-0.14015 0.12726,-0.0796 -0.0211,-0.36346 -0.24358,-0.4669 -0.1311,-0.0608 -0.55484,-0.10187 -1.00975,-0.0977 -0.63892,0.006 -0.78384,-0.0169 -0.78384,-0.11951 0,-0.16642 -0.0546,-0.15985 -0.33055,0.0385 -0.14894,0.10713 -0.27125,0.13922 -0.34804,0.0912 -0.0653,-0.0409 -0.15213,-0.0525 -0.1935,-0.027 -0.0665,0.0415 -0.45068,0.0422 -2.26332,0.004 -0.25632,-0.004 -0.5996,-0.001 -0.76268,0.001 -0.16313,0.006 -0.48726,0.015 -0.7203,0.015 -0.23303,1.1e-4 -0.67156,0.006 -0.97453,0.015 -0.30294,0.009 -0.72242,0.009 -0.93215,8.2e-4 -0.5245,-0.0169 -1.81561,0.0488 -2.33989,0.12064 l -0.43327,0.0591 -0.0541,0.64514 c -0.0693,0.8268 -0.0705,9.40981 -9.9e-4,9.75822 0.0451,0.22683 0.094,0.2673 0.36022,0.29573 0.6047,0.0645 0.84518,0.0608 0.873,-0.015 z M 188.472,151.58808 c 0.0361,-0.31823 -0.0832,-0.44063 -0.31023,-0.3181 -0.14894,0.0807 -0.19689,0.34132 -0.10867,0.59112 0.004,0.015 0.0953,0.015 0.20034,0 0.13878,-0.0208 0.19823,-0.0942 0.21849,-0.27304 z m 0.35348,-0.98982 c 0,-0.13846 -0.0383,-0.27539 -0.0848,-0.30449 -0.0506,-0.0315 -0.0849,0.0704 -0.0849,0.25162 0,0.16736 0.0381,0.30449 0.0849,0.30449 0.0467,0 0.0848,-0.11313 0.0848,-0.25162 z m 0.60769,-0.23221 c 0.2113,-0.19305 0.19492,-0.42675 -0.0342,-0.48722 -0.25012,-0.0664 -0.30993,0.015 -0.25817,0.35078 0.049,0.31809 0.0783,0.33186 0.29239,0.1364 z m 1.00237,-0.33811 c 0,-0.0655 -0.0764,-0.11933 -0.16949,-0.11933 -0.15956,0 -0.23041,0.16661 -0.11917,0.27923 0.0825,0.0831 0.28835,-0.031 0.28835,-0.16022 z m -0.86432,-0.82071 c 0.0558,-0.0565 0.10149,-0.19113 0.10149,-0.29945 0,-0.19471 -0.0171,-0.20246 -0.52511,-0.23537 -0.079,-0.004 -0.17123,-0.0373 -0.2048,-0.0711 -0.10722,-0.10807 -0.28698,-0.0662 -0.28698,0.0668 0,0.072 0.0756,0.12852 0.17214,0.12852 0.15575,0 0.19524,0.0533 0.29941,0.40633 0.0401,0.13621 0.31057,0.13846 0.44369,0.001 z m -0.0864,-1.03092 c 0.0848,-0.10413 0.13273,-0.34074 0.11288,-0.55613 -0.004,-0.0598 -0.12237,-0.10694 -0.26395,-0.10694 -0.23828,0 -0.25428,0.021 -0.25428,0.32792 0,0.18049 0.0255,0.35367 0.0567,0.385 0.0892,0.0901 0.25392,0.0668 0.34855,-0.0497 z m -0.57455,-0.62789 c 0,-0.46236 -0.14248,-0.52924 -0.8686,-0.40802 -0.26443,0.0443 -0.31776,0.0874 -0.31776,0.25846 0,0.25344 0.23279,0.35684 0.7838,0.34817 0.35898,-0.004 0.40255,-0.0272 0.40255,-0.19869 z M 30.78524,145.33149 c 0,-0.0647 -0.03813,-0.14184 -0.08474,-0.17092 -0.04824,-0.0302 -0.08475,0.0433 -0.08475,0.17092 0,0.12758 0.03653,0.20122 0.08475,0.1713 0.0466,-0.0293 0.08474,-0.10601 0.08474,-0.1713 z m 0.847397,-0.30952 c 0,-0.0469 -0.03814,-0.0617 -0.08474,-0.0328 -0.0466,0.0291 -0.08474,0.0916 -0.08474,0.13828 0,0.0469 0.03813,0.0617 0.08474,0.0328 0.04658,-0.0291 0.08474,-0.0912 0.08474,-0.13828 z m 0.280491,-1.31051 c 0.09691,-0.0741 0.120299,-0.13809 0.06357,-0.17355 -0.136513,-0.0852 -0.107391,-0.31353 0.05528,-0.43363 0.123681,-0.0912 0.128146,-0.12758 0.03023,-0.24681 -0.105993,-0.12927 -0.127673,-0.12796 -0.279882,0.009 -0.157621,0.14409 -0.169942,0.1439 -0.276297,-0.001 -0.07532,-0.10394 -0.130319,-0.12251 -0.170136,-0.0576 -0.03233,0.0529 0.0086,0.17149 0.09157,0.2638 0.115289,0.12871 0.127081,0.19115 0.05066,0.26837 -0.131959,0.13321 -0.125856,0.19892 0.03349,0.35974 0.160439,0.16211 0.203466,0.16323 0.401532,0.0113 z m 0.5669,-0.091 c 0,-0.0705 -0.0572,-0.12852 -0.127096,-0.12852 -0.06991,0 -0.127098,0.058 -0.127098,0.12852 0,0.0703 0.0572,0.12852 0.127098,0.12852 0.06989,0 0.127096,-0.058 0.127096,-0.12852 z m 0.889774,-0.64172 c -0.068,-0.11107 -0.296588,-0.11107 -0.296588,0 0,0.0469 0.07853,0.0857 0.174477,0.0857 0.09597,0 0.150942,-0.0388 0.122116,-0.0857 z m -1.181372,-0.4359 c 0.100471,-0.16398 -0.144834,-0.50519 -0.363269,-0.50519 -0.113407,0 -0.179492,0.0375 -0.150169,0.0856 0.02881,0.0469 0.01196,0.0856 -0.03738,0.0856 -0.142217,0 -0.06396,0.20374 0.122101,0.31777 0.213561,0.13115 0.355231,0.13622 0.428729,0.0169 z m -0.07512,-0.69574 c 0.394176,0.0448 0.535123,-0.0409 0.532311,-0.32274 -9.94e-4,-0.10038 -0.02003,-0.0959 -0.08767,0.0214 -0.109336,0.18946 -0.297607,0.19304 -0.368389,0.006 -0.06763,-0.17806 0.102857,-0.29275 0.344029,-0.23164 0.100165,0.0255 0.205092,0.009 0.233142,-0.0372 0.02805,-0.046 -0.05358,-0.10957 -0.18141,-0.14184 -0.127853,-0.0319 -0.299495,-0.11952 -0.381445,-0.19409 -0.139084,-0.12665 -0.139617,-0.14579 -0.008,-0.29273 0.111449,-0.12439 0.116013,-0.15704 0.02186,-0.1561 -0.26546,10e-4 -0.496138,0.10769 -0.44081,0.20102 0.0317,0.0533 -0.0078,0.0433 -0.08771,-0.0218 -0.201619,-0.16529 -0.2415,-0.0938 -0.283751,0.50708 -0.03705,0.52714 0.08164,0.86263 0.246397,0.69628 0.0425,-0.043 0.250141,-0.0584 0.461478,-0.0343 z m 0.748029,-1.17827 c -0.0671,-0.10957 -0.127095,-0.10957 -0.127095,0 0,0.0469 0.0404,0.0855 0.08973,0.0855 0.04935,0 0.06616,-0.0386 0.03738,-0.0855 z m 0.427178,-0.43348 c 0.07796,-0.12758 -0.01227,-0.19659 -0.17467,-0.13378 -0.07491,0.0289 -0.112402,0.0916 -0.0834,0.13903 0.0687,0.11239 0.187717,0.10957 0.258068,-0.004 z m -1.591349,-0.59403 c -0.05956,-0.0962 -0.120373,-0.12946 -0.138169,-0.0756 -0.01747,0.0525 0.02053,0.12965 0.08447,0.17055 0.166888,0.10694 0.172416,0.097 0.05371,-0.0951 z m 0.443877,-0.30347 c 0,-0.18406 -0.171079,-0.23703 -0.387432,-0.12027 -0.182109,0.0985 -0.188196,0.11914 -0.06219,0.21212 0.167856,0.12402 0.449646,0.0662 0.449646,-0.0919 z m 0.508437,0.0478 c 0.102782,-0.0672 0.09062,-0.0831 -0.06355,-0.0842 -0.104876,-7.3e-4 -0.190672,0.037 -0.190672,0.0842 0,0.10732 0.08991,0.10732 0.254214,0 z m 130.840298,36.05718 c 0,-0.13115 0.0285,-0.20374 0.0638,-0.16117 0.035,0.0428 0.0938,0.10056 0.13109,0.12871 0.0372,0.0283 0.007,0.10094 -0.0637,0.16116 -0.11278,0.0948 -0.13113,0.0769 -0.13113,-0.1287 z m 18.0498,-1.58403 c 0,-0.0497 -0.0381,-0.0668 -0.0849,-0.0377 -0.0467,0.0291 -0.0849,0.0169 -0.0849,-0.0285 0,-0.0446 0.0572,-0.10338 0.12696,-0.13058 0.0864,-0.0334 0.1271,0.004 0.1271,0.11932 0,0.0927 -0.019,0.16849 -0.0426,0.16849 -0.0232,0 -0.0424,-0.0409 -0.0424,-0.0908 z M 69.681306,173.58569 c -7.8e-5,-0.0112 -0.05671,-0.34602 -0.125855,-0.74275 -0.126671,-0.72678 -0.122753,-0.83532 0.02706,-0.74189 0.107561,0.0672 0.379711,1.30789 0.311374,1.41952 -0.04571,0.0747 -0.212219,0.12589 -0.212534,0.0651 z m 110.718554,-0.82684 c -0.0272,-0.0447 -0.0133,-0.10319 0.0308,-0.13115 0.0442,-0.0274 0.1026,-0.015 0.12992,0.0311 0.0273,0.0447 0.0133,0.10319 -0.0308,0.13115 -0.0442,0.0274 -0.1026,0.015 -0.12977,-0.031 z m 0.004,-0.49796 c -0.0924,-0.0931 -0.0528,-0.1865 0.11893,-0.27931 0.14205,-0.0767 0.16943,-0.0651 0.16943,0.0732 0,0.16492 -0.19261,0.30244 -0.28829,0.20582 z M -0.73996061,171.42051 c 0,-0.0732 0.038139,-0.10957 0.084743,-0.0805 0.1096381,0.0687 0.1096381,0.21388 0,0.21388 -0.046605,0 -0.084743,-0.0598 -0.084743,-0.13321 z m 1.86430931,-0.11838 c 0,-0.0445 0.038129,-0.10413 0.084743,-0.13321 0.046604,-0.0291 0.084743,0.006 0.084743,0.0805 0,0.0732 -0.038129,0.13322 -0.084743,0.13322 -0.046604,0 -0.084743,-0.0362 -0.084743,-0.0805 z m -0.42101463,-0.45112 c 0.00268,-0.10732 0.25153298,-0.49322 0.25153298,-0.38993 0,0.0285 0.022045,0.10994 0.0489579,0.18087 0.029619,0.0781 -0.020584,0.16641 -0.12709731,0.2239 -0.1358755,0.0732 -0.1754421,0.0702 -0.1733677,-0.015 z m -0.84739218,-0.52369 c -0.00161,-0.0976 0.093983,-0.19407 0.2515296,-0.25405 0.1398226,-0.0533 0.2542232,-0.12702 0.2542232,-0.1638 0,-0.0368 0.057198,-0.0668 0.1270958,-0.0668 0.19812238,0 0.14928858,0.2295 -0.063536,0.29873 -0.1048872,0.0343 -0.2235636,0.0565 -0.2637481,0.0495 -0.040202,-0.006 -0.1247775,0.0563 -0.1879892,0.14053 -0.1099635,0.14653 -0.114999,0.14634 -0.1175827,-0.001 z m 3.04798761,-0.55415 c 0,-0.0448 0.096841,-0.10038 0.2152033,-0.12289 0.1358174,-0.0265 0.2037132,-0.006 0.1840282,0.0542 -0.038709,0.11876 -0.399225,0.18087 -0.399225,0.0689 z m -2.96593531,-0.22475 c 0,-0.0679 0.034153,-0.14466 0.075869,-0.17055 0.087236,-0.0542 0.1924134,0.16548 0.1160378,0.24274 -0.090943,0.0919 -0.1918955,0.054 -0.1918955,-0.0722 z m 0.76267338,-0.0113 c 0,-0.0797 0.057659,-0.12345 0.1412568,-0.10694 0.21260863,0.0418 0.24179613,0.24152 0.035292,0.24152 -0.1040708,0 -0.1765378,-0.0552 -0.1765378,-0.13452 z m 4.48457133,-0.65675 c -0.00387,-0.0112 -0.014633,-0.12739 -0.023991,-0.25664 -0.02196,-0.3022 0.2188398,-0.32179 0.3511528,-0.0285 0.075118,0.16642 0.068199,0.2164 -0.035678,0.25666 -0.1333776,0.0514 -0.2794506,0.0661 -0.2914853,0.0285 z m 93.0745521,-2.50333 c -9.56e-4,-0.18822 0.01558,-0.27529 0.03675,-0.19345 0.02128,0.0816 0.02202,0.23574 0.0033,0.34216 -0.02052,0.10638 -0.03738,0.0394 -0.03857,-0.14859 z m -32.614687,-0.55201 c 0.03092,-0.37457 0.07788,-1.59695 0.10435,-2.71632 0.05271,-2.23026 0.200731,-2.95165 0.215278,-1.049 0.01099,1.42546 0.0084,1.8007 -0.01735,2.58561 -0.01111,0.34114 0.0072,0.84368 0.04124,1.11672 0.06452,0.52027 -0.01695,0.74409 -0.270891,0.74409 -0.109299,0 -0.120384,-0.10338 -0.07268,-0.6811 z M 6.6394617,161.08029 c -0.00376,-0.0901 0.016362,-0.14071 0.044531,-0.11238 0.028169,0.0283 0.031177,0.10225 0.00656,0.16398 -0.027053,0.0683 -0.04712,0.0478 -0.051182,-0.0516 z m 47.3632063,-4.84615 c 0,-0.15253 0.03529,-0.23974 0.08471,-0.20876 0.110326,0.0687 0.110326,0.47053 0,0.47053 -0.04657,0 -0.08471,-0.11764 -0.08471,-0.26171 z M 30.360542,143.13533 c 0,-0.24311 0.01391,-0.42593 0.03111,-0.40636 0.07214,0.0825 0.111183,0.8484 0.04323,0.8484 -0.0409,0 -0.07435,-0.19892 -0.07435,-0.44204 z m -0.02294,-0.63629 c -0.03397,-0.0343 -0.05732,-0.27734 -0.05186,-0.54011 l 0.0099,-0.47764 0.0765,0.46556 c 0.08003,0.48725 0.06945,0.65707 -0.0345,0.55211 z m 4.188821,-0.29055 c 0,-0.11764 0.01926,-0.16567 0.04272,-0.10694 0.02351,0.0589 0.02351,0.15516 0,0.21385 -0.02349,0.0589 -0.04272,0.009 -0.04272,-0.10695 z m -0.01331,-0.46551 c 0,-0.15028 0.05083,-0.17223 0.123492,-0.0537 0.02678,0.0439 0.01001,0.10395 -0.03738,0.13321 -0.04738,0.0293 -0.08613,-0.006 -0.08613,-0.0797 z m -4.332731,-1.13861 c -0.006,-0.17655 -0.02172,-0.48449 -0.03486,-0.68444 -0.01315,-0.19997 0.01098,-0.36359 0.05332,-0.36359 0.04248,0 0.07775,0.22134 0.07836,0.4919 6.3e-4,0.27057 0.02415,0.57853 0.05224,0.68446 0.03068,0.11558 0.01331,0.19241 -0.04352,0.19241 -0.05205,0 -0.09954,-0.14428 -0.105596,-0.32083 z m 0.351184,-1.70605 c 9.41e-4,-0.29718 0.02406,-0.37579 0.08343,-0.2831 0.107754,0.16829 0.107754,0.57442 0,0.64168 -0.0521,0.0326 -0.08424,-0.10563 -0.08343,-0.35858 z m 3.649261,0.109 c -0.0038,-0.0901 0.01636,-0.14071 0.04453,-0.11238 0.02815,0.0283 0.03114,0.10225 0.0066,0.16398 -0.02706,0.0683 -0.04714,0.0478 -0.05121,-0.0516 z m 90.326213,-27.6403 c 0,-0.23883 0.2053,-0.29494 0.28757,-0.0786 0.0859,0.22614 0.0589,0.29245 -0.11809,0.29245 -0.12415,0 -0.16948,-0.0569 -0.16948,-0.21387 z"
       fill="#005fbf"
       id="path3182"
       style="fill:#373737;fill-opacity:1;stroke-width:0.402123" />
    <text
       xml:space="preserve"
       style="font-style:normal;font-variant:normal;font-weight:normal;font-stretch:normal;font-size:12.7px;line-height:1.25;font-family:'Apple SD Gothic Neo';-inkscape-font-specification:'Apple SD Gothic Neo, Normal';font-variant-ligatures:normal;font-variant-caps:normal;font-variant-numeric:normal;font-variant-east-asian:normal;fill:#ffffff;fill-opacity:1;stroke:#000000;stroke-width:0.264583;stroke-opacity:0.552846"
       x="68.539925"
       y="227.91264"
       id="text3258"><tspan
         sodipodi:role="line"
         id="tspan3256"
         x="68.539925"
         y="227.91264"
         style="font-style:normal;font-variant:normal;font-weight:normal;font-stretch:normal;font-size:12.7px;font-family:'Apple SD Gothic Neo';-inkscape-font-specification:'Apple SD Gothic Neo, Normal';font-variant-ligatures:normal;font-variant-caps:normal;font-variant-numeric:normal;font-variant-east-asian:normal;fill:#ffffff;fill-opacity:1;stroke:#000000;stroke-width:0.264583;stroke-opacity:0.552846">Frilans webbutvecklare</tspan></text>
    <text
       xml:space="preserve"
       style="font-style:normal;font-variant:normal;font-weight:normal;font-stretch:normal;font-size:50.8px;line-height:1.25;font-family:Fontasia;-inkscape-font-specification:'Fontasia, Normal';font-variant-ligatures:normal;font-variant-caps:normal;font-variant-numeric:normal;font-variant-east-asian:normal;fill:#ffffff;fill-opacity:1;stroke:#000000;stroke-width:0.321535;stroke-opacity:0.780488"
       x="59.055779"
       y="185.53751"
       id="text3215"
       transform="scale(0.91061081,1.098164)"><tspan
         sodipodi:role="line"
         x="59.055779"
         y="185.53751"
         style="font-style:normal;font-variant:normal;font-weight:normal;font-stretch:normal;font-size:50.8px;font-family:Fontasia;-inkscape-font-specification:'Fontasia, Normal';font-variant-ligatures:normal;font-variant-caps:normal;font-variant-numeric:normal;font-variant-east-asian:normal;fill:#ffffff;fill-opacity:1;stroke:#000000;stroke-width:0.321535;stroke-opacity:0.780488"
         id="tspan3436">WebHorisont</tspan></text>
  </g>
  <g
     inkscape:groupmode="layer"
     id="layer7"
     inkscape:label="Lager 2"
     transform="translate(8.3289461,-129.47635)">
    <text
       xml:space="preserve"
       id="text3207"
       style="font-style:normal;font-variant:normal;font-weight:normal;font-stretch:normal;font-size:25.39999999999999858px;line-height:1.25;font-family:'Apple SD Gothic Neo';-inkscape-font-specification:'Apple SD Gothic Neo, Normal';font-variant-ligatures:normal;font-variant-caps:normal;font-variant-numeric:normal;font-variant-east-asian:normal;white-space:pre;shape-inside:url(#rect3209);"><tspan
         style="visibility:hidden"
         x="33.300781"
         y="308.70547"><tspan
           dx="0 21.679296 12.699999 13.841019 16.966408 13.543358 8.7808533 5.7546921 10.517181 13.543365 13.592972"
           style="font-style:normal;font-variant:normal;font-weight:normal;font-stretch:normal;font-size:25.4px;font-family:'Apple SD Gothic Neo';-inkscape-font-specification:'Apple SD Gothic Neo, Normal';font-variant-ligatures:normal;font-variant-caps:normal;font-variant-numeric:normal;font-variant-east-asian:normal">WebHorisont</tspan></tspan></text>
  </g>
  <g
     inkscape:groupmode="layer"
     id="layer10"
     inkscape:label="Lager 3" />
</svg>
