<?xml version="1.0" encoding="UTF-8" standalone="no"?>
<svg
   xmlns:dc="http://purl.org/dc/elements/1.1/"
   xmlns:cc="http://creativecommons.org/ns#"
   xmlns:rdf="http://www.w3.org/1999/02/22-rdf-syntax-ns#"
   xmlns:svg="http://www.w3.org/2000/svg"
   xmlns="http://www.w3.org/2000/svg"
   xmlns:sodipodi="http://sodipodi.sourceforge.net/DTD/sodipodi-0.dtd"
   xmlns:inkscape="http://www.inkscape.org/namespaces/inkscape"
   width="212.83258mm"
   height="223.28098mm"
   viewBox="0 0 212.83258 223.28098"
   version="1.1"
   id="svg1588"
   inkscape:version="1.0.2 (e86c8708, 2021-01-15)"
   sodipodi:docname="orange-laptop.svg">
  <defs
     id="defs1582">
    <filter
       id="b">
      <feGaussianBlur
         stdDeviation="13.10512"
         id="feGaussianBlur1792" />
    </filter>
    <filter
       id="a"
       x="-0.76528001"
       y="-0.76528001"
       width="2.5306001"
       height="2.5306001">
      <feGaussianBlur
         stdDeviation="170.36657"
         id="feGaussianBlur1795" />
    </filter>
    <filter
       id="b-0">
      <feGaussianBlur
         stdDeviation="13.10512"
         id="feGaussianBlur2048" />
    </filter>
    <filter
       id="a-6"
       x="-.76528"
       y="-.76528"
       width="2.5306"
       height="2.5306">
      <feGaussianBlur
         stdDeviation="170.36657"
         id="feGaussianBlur2051" />
    </filter>
  </defs>
  <sodipodi:namedview
     id="base"
     pagecolor="#ffffff"
     bordercolor="#666666"
     borderopacity="1.0"
     inkscape:pageopacity="0.0"
     inkscape:pageshadow="2"
     inkscape:zoom="0.48"
     inkscape:cx="510.07864"
     inkscape:cy="531.55252"
     inkscape:document-units="mm"
     inkscape:current-layer="layer1"
     inkscape:document-rotation="0"
     showgrid="false"
     inkscape:pagecheckerboard="true"
     inkscape:window-width="1637"
     inkscape:window-height="789"
     inkscape:window-x="79"
     inkscape:window-y="122"
     inkscape:window-maximized="0" />
  <metadata
     id="metadata1585">
    <rdf:RDF>
      <cc:Work
         rdf:about="">
        <dc:format>image/svg+xml</dc:format>
        <dc:type
           rdf:resource="http://purl.org/dc/dcmitype/StillImage" />
        <dc:title></dc:title>
      </cc:Work>
    </rdf:RDF>
  </metadata>
  <g
     inkscape:label="Lager 1"
     inkscape:groupmode="layer"
     id="layer1"
     transform="translate(9.4308929,-50.288518)">
    <path
       style="fill:#db6f34;fill-opacity:1;stroke:#db6f34;stroke-width:0;stroke-linejoin:bevel;stroke-opacity:1;paint-order:stroke markers fill"
       d=""
       id="path1654"
       transform="matrix(0.26458333,0,0,0.26458333,-12.025794,46.47135)" />
    <path
       style="fill:#db6f34;fill-opacity:1;stroke:#db6f34;stroke-width:0;stroke-linejoin:bevel;stroke-opacity:1;paint-order:stroke markers fill"
       d=""
       id="path1656"
       transform="matrix(0.26458333,0,0,0.26458333,-12.025794,46.47135)" />
    <path
       style="fill:#db6f34;fill-opacity:1;stroke:#db6f34;stroke-width:0;stroke-linejoin:bevel;stroke-opacity:1;paint-order:stroke markers fill"
       d=""
       id="path1668"
       transform="matrix(0.26458333,0,0,0.26458333,-12.025794,46.47135)" />
    <path
       style="fill:#db6f34;fill-opacity:0.417553;stroke:none;stroke-width:2.08333;stroke-opacity:1;paint-order:stroke markers fill"
       d=""
       id="path1898"
       transform="matrix(0.26458333,0,0,0.26458333,-9.4308929,50.288518)" />
    <path
       style="fill:#db6f34;fill-opacity:0.417553;stroke:none;stroke-width:2.08333;stroke-opacity:1;paint-order:stroke markers fill"
       d=""
       id="path1900"
       transform="matrix(0.26458333,0,0,0.26458333,-9.4308929,50.288518)" />
    <path
       style="fill:#db6f34;fill-opacity:0.417553;stroke:none;stroke-width:2.08333;stroke-opacity:1;paint-order:stroke markers fill"
       d=""
       id="path1902"
       transform="matrix(0.26458333,0,0,0.26458333,-9.4308929,50.288518)" />
    <path
       style="fill:#db6f34;fill-opacity:0.417553;stroke:none;stroke-width:2.08333;stroke-opacity:1;paint-order:stroke markers fill"
       d=""
       id="path1914"
       transform="matrix(0.26458333,0,0,0.26458333,-9.4308929,50.288518)" />
    <path
       style="fill:#db6f34;fill-opacity:0.417553;stroke:none;stroke-width:2.08333;stroke-opacity:1;paint-order:stroke markers fill"
       d=""
       id="path1924"
       transform="matrix(0.26458333,0,0,0.26458333,-9.4308929,50.288518)" />
    <path
       style="fill:#db6f34;fill-opacity:0.417553;stroke:none;stroke-width:2.08333;stroke-opacity:1;paint-order:stroke markers fill"
       d=""
       id="path1938"
       transform="matrix(0.26458333,0,0,0.26458333,-9.4308929,50.288518)" />
    <path
       style="fill:#db6f34;fill-opacity:0.417553;stroke:none;stroke-width:2.08333;stroke-opacity:1;paint-order:stroke markers fill"
       d=""
       id="path1942"
       transform="matrix(0.26458333,0,0,0.26458333,-9.4308929,50.288518)" />
    <path
       style="fill:#db6f34;fill-opacity:0.417553;stroke:none;stroke-width:2.08333;stroke-opacity:1;paint-order:stroke markers fill"
       d=""
       id="path1944"
       transform="matrix(0.26458333,0,0,0.26458333,-9.4308929,50.288518)" />
    <path
       style="fill:#db6f34;fill-opacity:0.417553;stroke:none;stroke-width:2.08333;stroke-opacity:1;paint-order:stroke markers fill"
       d=""
       id="path1950"
       transform="matrix(0.26458333,0,0,0.26458333,-9.4308929,50.288518)" />
    <path
       style="fill:#db6f34;fill-opacity:0.417553;stroke:none;stroke-width:2.08333;stroke-opacity:1;paint-order:stroke markers fill"
       d=""
       id="path1964"
       transform="matrix(0.26458333,0,0,0.26458333,-9.4308929,50.288518)" />
    <path
       style="fill:#db6f34;fill-opacity:0.417553;stroke:none;stroke-width:2.08333;stroke-opacity:1;paint-order:stroke markers fill"
       d=""
       id="path1966"
       transform="matrix(0.26458333,0,0,0.26458333,-9.4308929,50.288518)" />
    <path
       style="fill:#db6f34;fill-opacity:0.417553;stroke:none;stroke-width:2.08333;stroke-opacity:1;paint-order:stroke markers fill"
       d=""
       id="path1968"
       transform="matrix(0.26458333,0,0,0.26458333,-9.4308929,50.288518)" />
    <path
       style="fill:#db6f34;fill-opacity:0.417553;stroke:none;stroke-width:2.08333;stroke-opacity:1;paint-order:stroke markers fill"
       d=""
       id="path1970"
       transform="matrix(0.26458333,0,0,0.26458333,-9.4308929,50.288518)" />
    <path
       style="fill:#db6f34;fill-opacity:0.417553;stroke:none;stroke-width:2.08333;stroke-opacity:1;paint-order:stroke markers fill"
       d=""
       id="path1972"
       transform="matrix(0.26458333,0,0,0.26458333,-9.4308929,50.288518)" />
    <path
       style="fill:#db6f34;fill-opacity:0.417553;stroke:none;stroke-width:2.08333;stroke-opacity:1;paint-order:stroke markers fill"
       d=""
       id="path1982"
       transform="matrix(0.26458333,0,0,0.26458333,-9.4308929,50.288518)" />
    <path
       style="fill:#db6f34;fill-opacity:0.417553;stroke:none;stroke-width:2.08333;stroke-opacity:1;paint-order:stroke markers fill"
       d=""
       id="path1984"
       transform="matrix(0.26458333,0,0,0.26458333,-9.4308929,50.288518)" />
    <path
       style="fill:#db6f34;fill-opacity:0.417553;stroke:none;stroke-width:2.08333;stroke-opacity:1;paint-order:stroke markers fill"
       d=""
       id="path1986"
       transform="matrix(0.26458333,0,0,0.26458333,-9.4308929,50.288518)" />
    <path
       style="fill:#db6f34;fill-opacity:0.417553;stroke:none;stroke-width:2.08333;stroke-opacity:1;paint-order:stroke markers fill"
       d=""
       id="path1988"
       transform="matrix(0.26458333,0,0,0.26458333,-9.4308929,50.288518)" />
    <path
       style="fill:#db6f34;fill-opacity:0.417553;stroke:none;stroke-width:2.08333;stroke-opacity:1;paint-order:stroke markers fill"
       d=""
       id="path1998"
       transform="matrix(0.26458333,0,0,0.26458333,-9.4308929,50.288518)" />
    <path
       style="fill:#db6f34;fill-opacity:0.417553;stroke:none;stroke-width:2.08333;stroke-opacity:1;paint-order:stroke markers fill"
       d=""
       id="path2000"
       transform="matrix(0.26458333,0,0,0.26458333,-9.4308929,50.288518)" />
    <path
       style="fill:#db6f34;fill-opacity:0.417553;stroke:none;stroke-width:2.08333;stroke-opacity:1;paint-order:stroke markers fill"
       d=""
       id="path2004"
       transform="matrix(0.26458333,0,0,0.26458333,-9.4308929,50.288518)" />
    <path
       style="fill:#db6f34;fill-opacity:0.417553;stroke:none;stroke-width:2.08333;stroke-opacity:1;paint-order:stroke markers fill"
       d=""
       id="path2016"
       transform="matrix(0.26458333,0,0,0.26458333,-9.4308929,50.288518)" />
    <path
       style="fill:#db6f34;fill-opacity:0.417553;stroke:none;stroke-width:2.08333;stroke-opacity:1;paint-order:stroke markers fill"
       d=""
       id="path2020"
       transform="matrix(0.26458333,0,0,0.26458333,-9.4308929,50.288518)" />
    <path
       style="fill:#db6f34;fill-opacity:0.417553;stroke:none;stroke-width:2.08333;stroke-opacity:1;paint-order:stroke markers fill"
       d=""
       id="path2022"
       transform="matrix(0.26458333,0,0,0.26458333,-9.4308929,50.288518)" />
    <path
       style="fill:#db6f34;fill-opacity:0.417553;stroke:none;stroke-width:2.08333;stroke-opacity:1;paint-order:stroke markers fill"
       d=""
       id="path2028"
       transform="matrix(0.26458333,0,0,0.26458333,-9.4308929,50.288518)" />
    <path
       style="fill:#db6f34;fill-opacity:0.417553;stroke:none;stroke-width:2.08333;stroke-opacity:1;paint-order:stroke markers fill"
       d=""
       id="path2032"
       transform="matrix(0.26458333,0,0,0.26458333,-9.4308929,50.288518)" />
    <path
       style="fill:#db6f34;fill-opacity:0.417553;stroke:none;stroke-width:2.08333;stroke-opacity:1;paint-order:stroke markers fill"
       d=""
       id="path2034"
       transform="matrix(0.26458333,0,0,0.26458333,-9.4308929,50.288518)" />
    <g
       transform="matrix(0.26458333,0,0,0.26458333,-7.4673654,25.834758)"
       id="g2070"
       style="fill-opacity:0.41755301">
      <path
         d="m -2.8462,98.087 h 803.35 v 842.84 h -803.35 z"
         stroke="#000000"
         stroke-width="1.0566"
         id="path2056"
         style="fill-opacity:0.41755301" />
      <path
         transform="translate(-303.71,-191.14)"
         d="m 954.29,708.08 c 0,147.54 -119.6,267.14 -267.14,267.14 -147.54,0 -267.14,-119.6 -267.14,-267.14 0,-147.54 119.6,-267.14 267.14,-267.14 147.54,0 267.14,119.6 267.14,267.14 z"
         fill="#ffffff"
         filter="url(#b)"
         stroke="#ffffff"
         id="path2058"
         style="filter:url(#b-0);fill-opacity:0.41755301" />
      <path
         transform="matrix(1.0107,0,0,1.0107,-324.48,-200.42)"
         d="m 954.29,708.08 a 267.145,267.145 0 1 1 -534.29,0 267.145,267.145 0 1 1 534.29,0 z"
         stroke="#000000"
         id="path2060"
         style="fill-opacity:0.41755301" />
      <path
         transform="matrix(0.14287,0,0,0.14498,498.4,563.7)"
         d="m 954.29,708.08 c 0,147.54 -119.6,267.14 -267.14,267.14 -147.54,0 -267.14,-119.6 -267.14,-267.14 0,-147.54 119.6,-267.14 267.14,-267.14 147.54,0 267.14,119.6 267.14,267.14 z"
         fill="#ffffff"
         filter="url(#a)"
         stroke="#000000"
         id="path2062"
         style="filter:url(#a-6);fill-opacity:0.41755301" />
      <path
         transform="matrix(0.14287,0,0,0.14498,498.4,563.7)"
         d="m 954.29,708.08 c 0,147.54 -119.6,267.14 -267.14,267.14 -147.54,0 -267.14,-119.6 -267.14,-267.14 0,-147.54 119.6,-267.14 267.14,-267.14 147.54,0 267.14,119.6 267.14,267.14 z"
         fill="#ffffff"
         filter="url(#a)"
         stroke="#000000"
         id="path2064"
         style="filter:url(#a-6);fill-opacity:0.41755301" />
      <path
         transform="matrix(0.14287,0,0,0.14498,498.4,563.7)"
         d="m 954.29,708.08 c 0,147.54 -119.6,267.14 -267.14,267.14 -147.54,0 -267.14,-119.6 -267.14,-267.14 0,-147.54 119.6,-267.14 267.14,-267.14 147.54,0 267.14,119.6 267.14,267.14 z"
         fill="#ffffff"
         filter="url(#a)"
         stroke="#000000"
         id="path2066"
         style="filter:url(#a-6);fill-opacity:0.41755301" />
      <path
         transform="matrix(0.28229,0,0,0.28646,405.42,462.1)"
         d="m 954.29,708.08 c 0,147.54 -119.6,267.14 -267.14,267.14 -147.54,0 -267.14,-119.6 -267.14,-267.14 0,-147.54 119.6,-267.14 267.14,-267.14 147.54,0 267.14,119.6 267.14,267.14 z"
         fill="#ffffff"
         filter="url(#a)"
         stroke="#000000"
         id="path2068"
         style="filter:url(#a-6);fill-opacity:0.41755301" />
    </g>
  </g>
</svg>
