<?xml version="1.0" encoding="UTF-8" standalone="no"?>
<svg
   xmlns:dc="http://purl.org/dc/elements/1.1/"
   xmlns:cc="http://creativecommons.org/ns#"
   xmlns:rdf="http://www.w3.org/1999/02/22-rdf-syntax-ns#"
   xmlns:svg="http://www.w3.org/2000/svg"
   xmlns="http://www.w3.org/2000/svg"
   xmlns:sodipodi="http://sodipodi.sourceforge.net/DTD/sodipodi-0.dtd"
   xmlns:inkscape="http://www.inkscape.org/namespaces/inkscape"
   viewBox="0 0 608.99963 290.99947"
   version="1.1"
   id="svg835"
   sodipodi:docname="skyline.svg"
   width="608.99963"
   height="290.99948"
   inkscape:version="1.0.2 (e86c8708, 2021-01-15)">
  <metadata
     id="metadata841">
    <rdf:RDF>
      <cc:Work
         rdf:about="">
        <dc:format>image/svg+xml</dc:format>
        <dc:type
           rdf:resource="http://purl.org/dc/dcmitype/StillImage" />
        <dc:title></dc:title>
      </cc:Work>
    </rdf:RDF>
  </metadata>
  <defs
     id="defs839" />
  <sodipodi:namedview
     pagecolor="#ffffff"
     bordercolor="#666666"
     borderopacity="1"
     objecttolerance="10"
     gridtolerance="10"
     guidetolerance="10"
     inkscape:pageopacity="0"
     inkscape:pageshadow="2"
     inkscape:window-width="1637"
     inkscape:window-height="789"
     id="namedview837"
     showgrid="false"
     inkscape:zoom="0.8421875"
     inkscape:cx="299.50446"
     inkscape:cy="190.41417"
     inkscape:window-x="79"
     inkscape:window-y="122"
     inkscape:window-maximized="0"
     inkscape:current-layer="svg835"
     inkscape:pagecheckerboard="true" />
  <path
     d="m 5.060758e-4,214.32412 c 0,-61.198 0.0593000042,-76.685 0.2936700042,-76.711 0.16155,-0.0176 0.69421,-0.0847 1.18370002,-0.14896 0.65808,-0.0864 0.8724,-0.0531 0.82235,0.12778 -0.0372,0.13455 0.14619,0.33752 0.40756,0.45108 0.2686,0.1167 0.43983,0.35156 0.39395,0.54038 -0.0893,0.36679 0.74979,0.48563 1.0105,0.1431 0.0798,-0.10495 0.0332,-0.19086 -0.10365,-0.19086 -0.13685,0 -0.2488,-0.0858 -0.2488,-0.1908 0,-0.10495 0.37718,-0.1908 0.83818,-0.1908 0.72513,0 0.81846,0.0503 0.69219,0.3735 -0.11803,0.302 0.001,0.40451 0.62276,0.53531 0.53759,0.1131 0.80948,0.30203 0.90432,0.6283 0.18525,0.63733 0.80078,0.5972 0.89364,-0.0582 0.0409,-0.28867 0.1995,-0.52493 0.35241,-0.52512 0.18861,-2.4e-4 0.27811,0.44486 0.27811,1.3834 0,1.2566 0.0432,1.3838 0.46987,1.3838 0.31111,0 0.49575,-0.14792 0.54633,-0.43768 0.0571,-0.32721 0.18555,-0.40952 0.50889,-0.32614 0.2378399,0.0613 0.4979699,0.0254 0.5780899,-0.0799 0.096,-0.12607 0.34351,-0.11816 0.72563,0.0232 0.31897,0.11798 0.63096,0.17322 0.69327,0.12259 0.19244,-0.15628 0.20958,-1.3745 0.0267,-1.8948 -0.16162,-0.45947 -0.1269,-0.48804 0.50173,-0.41312 0.41936,0.05 0.78754,-0.0293 0.97138,-0.2092 0.26214,-0.25653 0.34804,-0.2475 0.75022,0.0792 0.575,0.46698 0.58236,0.742 0.0166,0.62186 -0.56098,-0.11914 -0.86927,0.67563 -0.40756,1.0507 0.25925,0.21048 0.40242,0.21237 0.80084,0.0103 0.37412,-0.18973 0.60952,-0.19583 1.0283,-0.0267 1.0272,0.41501 4.0298,0.58539 5.3597,0.30426 0.66705,-0.14105 0.83701,-0.27689 0.89992,-0.71924 0.0427,-0.2999 -0.11067,-0.82925 -0.34075,-1.1763 -0.37896,-0.5715 -0.38414,-0.66327 -0.0546,-0.97446 0.20007,-0.18893 0.42941,-0.49377 0.5096,-0.67743 0.17882,-0.40948 0.53336,-0.43317 0.71545,-0.0477 0.0744,0.15747 0.24426,0.28626 0.37755,0.28626 0.31104,0 0.31706,-0.70328 0.007,-0.85867 -0.40713,-0.20435 -0.25535,-0.47711 0.2655,-0.47711 0.45414,0 0.48943,-0.0794 0.38128,-0.85858 -0.14166,-1.0208 -0.50382,-1.4313 -1.263,-1.4313 -0.30724,0 -0.5586,-0.0858 -0.5586,-0.1908 0,-0.10496 0.20377,-0.1908 0.45287,-0.1908 0.24907,0 0.65748,-0.21133 0.90758,-0.46954 0.39936,-0.41235 0.50761,-0.43814 0.88927,-0.21146 0.38095,0.22623 0.39325,0.2984 0.0998,0.5856 -0.29242,0.2861 -0.28389,0.35767 0.0676,0.56644 0.47165,0.28006 0.52728,1.1964 0.11709,1.9276 -0.25492,0.45438 -0.22443,0.54849 0.28647,0.88446 0.48029,0.31586 0.7795,0.35556 1.8712,0.24844 0.71471,-0.0702 1.5465,-0.25629 1.8485,-0.41364 0.81032,-0.4223 0.89054,-0.16669 0.16693,0.53177 l -0.6348,0.6126 1.2004,0.4797 c 1.1102,0.44363 1.2292,0.45627 1.5839,0.16821 0.29952,-0.24322 0.32297,-0.37058 0.10717,-0.58179 -0.15197,-0.14868 -0.25828,-0.4321 -0.2363,-0.62973 0.10674,-0.9588 -0.0428,-1.4089 -0.46826,-1.4089 -0.5833,0 -1.9157,-0.55225 -1.9157,-0.79404 0,-0.11917 0.35043,-0.14554 0.91131,-0.0686 0.86013,0.11804 0.9254,0.0922 1.1625,-0.46027 0.27064,-0.63065 0.50826,-0.7019 1.2562,-0.37683 0.33548,0.14584 0.55393,0.14816 0.72677,0.008 0.33286,-0.27032 2.265,-0.0464 2.9232,0.33881 0.3219,0.18838 0.47189,0.43024 0.39533,0.63754 -0.0679,0.18362 -0.0106,0.33389 0.12737,0.33389 0.13796,0 0.25079,-0.11905 0.25079,-0.26456 0,-0.32169 1.3222,-0.51224 2.0376,-0.2937 0.68093,0.20801 1.1863,-0.23483 0.66722,-0.58472 -0.19543,-0.13171 -0.3553,-0.41147 -0.3553,-0.62161 0,-0.32282 -0.10942,-0.36438 -0.70486,-0.26764 -0.53104,0.0862 -0.7049,0.0443 -0.7049,-0.17001 0,-0.19641 -0.21096,-0.27142 -0.68144,-0.24234 -0.844,0.0523 -1.4786,-0.34992 -1.3857,-0.87814 0.0563,-0.31976 0.20907,-0.38605 0.77493,-0.33627 0.38766,0.0341 0.88987,0.19769 1.116,0.3635 0.53457,0.392 0.53457,0.13989 0,-0.31192 -0.38293,-0.32373 -0.81597,-0.44989 -2.4699,-0.71964 -0.84278,-0.13742 -1.0277,-0.40384 -0.54976,-0.79199 0.31585,-0.25656 0.46621,-0.27023 0.84695,-0.0771 0.73336,0.37201 0.93944,0.28354 0.7865,-0.33762 -0.1055,-0.42841 -0.0541,-0.57248 0.2044,-0.57248 0.50489,0 1.2523,0.74643 1.167,1.1655 -0.0554,0.27206 0.0682,0.36108 0.5013,0.36108 0.37715,0 0.61694,0.13116 0.6976,0.38162 0.16501,0.51242 0.87172,0.49789 0.87172,-0.0179 0,-0.23904 -0.18874,-0.43961 -0.46988,-0.49933 -0.25848,-0.0549 -0.46991,-0.16861 -0.46991,-0.25275 0,-0.0841 -0.061,-0.28198 -0.13544,-0.43961 -0.0919,-0.19452 0.0343,-0.30692 0.39261,-0.34955 0.33403,-0.0398 0.72862,-0.35638 1.0737,-0.86154 0.49901,-0.73056 0.51363,-0.82458 0.1714,-1.1026 -0.31528,-0.25601 -0.32465,-0.35226 -0.0598,-0.61154 0.20628,-0.20184 0.34475,-1.0267 0.40252,-2.3974 l 0.0881,-2.0898 0.6781,-0.192 c 0.37298,-0.10559 0.69135,-0.26947 0.70748,-0.36417 0.0162,-0.0947 0.0553,-0.4083 0.0869,-0.6969 0.0316,-0.28864 0.17167,-1.5359 0.31128,-2.7717 0.13957,-1.2358 0.19274,-2.6656 0.1181,-3.1774 -0.1344,-0.92184 0.0966,-3.1818 0.30768,-3.0103 0.0603,0.049 0.1509,1.5375 0.20128,3.3078 0.0504,1.7702 0.098,3.2506 0.10586,3.2897 0.008,0.0391 0.17759,-0.039 0.37722,-0.17355 0.24403,-0.16449 0.31645,-0.41611 0.22118,-0.76843 -0.0823,-0.30444 -0.0307,-0.57965 0.12317,-0.65686 0.18007,-0.0904 0.21331,-0.52377 0.10385,-1.3539 -0.11205,-0.84973 -0.0813,-1.221 0.10136,-1.221 0.14428,0 0.26231,-0.17288 0.26231,-0.38425 0,-0.2113 0.13212,-0.5574 0.2937,-0.7691 0.24204,-0.3172 0.23177,-0.41681 -0.0588,-0.56692 -0.2729,-0.14096 -0.20662,-0.18274 0.29373,-0.185 0.35531,-0.002 0.63358,-0.0673 0.61826,-0.14603 -0.0153,-0.0787 -0.0137,-0.27194 0.004,-0.42935 0.028,-0.25442 0.0567,-0.25442 0.25912,0 0.19466,0.2446 0.22833,0.23767 0.23142,-0.0477 0.002,-0.18368 0.15594,-0.33395 0.34212,-0.33395 0.49068,0 0.68561,-0.35541 0.36632,-0.66788 -0.3727,-0.36472 -0.0973,-0.66788 0.60663,-0.66788 0.56354,0 0.56872,-0.0127 0.19405,-0.47705 -0.31531,-0.39087 -0.32486,-0.47702 -0.0527,-0.47702 0.18263,0 0.77084,-0.34247 1.3072,-0.76099 0.53632,-0.41852 1.0396,-0.67612 1.1185,-0.57248 0.2399,0.31531 0.77043,0.21039 0.73568,-0.14545 -0.0231,-0.23605 0.13954,-0.33395 0.55473,-0.33395 0.48207,0 0.59862,0.10272 0.65031,0.57248 0.0989,0.89987 0.56495,2.1945 0.78992,2.1945 0.11245,0 0.2044,-0.11829 0.2044,-0.26291 0,-0.14456 0.16717,-0.37546 0.37137,-0.51312 0.2161,-0.14566 0.32809,-0.43408 0.26786,-0.69 -0.12455,-0.52893 0.4527,-1.0304 0.66611,-0.57874 0.0749,0.15845 0.11232,0.40424 0.0833,0.54623 -0.0675,0.32904 0.26362,0.9794 0.59143,1.1617 0.16945,0.0942 0.15581,0.14114 -0.0416,0.14313 -0.16152,0.002 -0.29374,0.17462 -0.29374,0.38455 0,0.20993 0.0799,0.38165 0.17766,0.38165 0.0976,0 0.32485,0.27905 0.50492,0.62015 0.47092,0.89221 0.76539,1.1649 0.96906,0.89731 0.10149,-0.13336 0.22235,-0.0352 0.31141,0.25305 0.20232,0.65463 0.98827,0.85355 4.263196,1.0787 3.8347,0.26361 6.947,0.57101 7.2326,0.71442 0.15601,0.0783 0.18047,1.9442 0.0718,5.4811 -0.14068,4.5812 -0.114,5.4179 0.18296,5.744 0.30718,0.33722 0.30664,0.41855 -0.005,0.6987 -0.49538,0.44608 -0.32351,1.3784 0.27055,1.4677 0.25845,0.0388 0.55823,0.19534 0.66618,0.34778 0.10795,0.15244 0.42514,0.34894 0.7049,0.43668 0.46829,0.14688 0.47482,0.17056 0.0824,0.2991 -0.29851,0.0978 -0.5312,0.0178 -0.77695,-0.26709 -0.45888,-0.53214 -1.0216,-0.52008 -1.0568,0.0226 -0.18679,2.8828 -0.15916,3.9784 0.0985,3.9095 0.155,-0.0414 0.31551,-0.26178 0.35685,-0.48966 0.0477,-0.26379 0.24258,-0.41443 0.53598,-0.41443 0.47044,0 0.53571,-0.0835 0.78353,-1.0018 0.11474,-0.42535 0.27062,-0.52478 0.82232,-0.52478 0.37447,0 0.71969,-0.0948 0.76727,-0.2106 0.0475,-0.11575 0.22141,0.21728 0.38643,0.74017 l 0.3,0.9507 1.1998,0.0937 c 1.3003,0.1015 1.8258,0.45898 1.8258,1.2423 0,0.37018 0.0884,0.43072 0.4812,0.32947 0.52381,-0.13504 1.1634,0.18701 1.1634,0.58585 0,0.13751 -0.21146,0.30454 -0.4699,0.37112 -0.68459,0.17651 -0.57477,0.47641 0.17624,0.48135 l 0.6461,0.004 -0.5874,0.376 c -0.49773,0.31857 -0.53356,0.40488 -0.23498,0.56522 0.19385,0.10416 0.73198,0.19067 1.1958,0.19226 0.67344,0.002 0.89726,-0.0932 1.111,-0.47412 0.20117,-0.35852 0.45868,-0.48242 1.0363,-0.49881 1.39281,-0.0394 2.01541,-0.14017 2.73581,-0.44275 1.094,-0.45941 1.3916,-0.37778 1.7034,0.4675 0.22645,0.61371 0.36895,0.74405 0.71612,0.65454 0.23835,-0.0615 1.0269,0.10895 1.7522,0.37863 0.72533,0.26971 1.4534,0.49042 1.6178,0.49042 0.40087,0 0.56165,0.3909 0.41579,1.0107 -0.18948,0.80499 0.0616,1.1481 0.6524,0.8913 0.42037,-0.18274 0.46816,-0.32349 0.33191,-0.97839 -0.13416,-0.64478 -0.0821,-0.80878 0.33077,-1.0437 0.26947,-0.15326 0.57772,-0.55389 0.68507,-0.89029 0.24486,-0.7674 0.74361,-0.78348 1.2136,-0.0392 0.19875,0.31485 0.38346,0.60468 0.41036,0.64404 0.0685,0.10007 1.2405,0.0898 1.3658,-0.012 0.13988,-0.11359 1.0291,-22.552 1.4052,-35.457 0.0749,-2.571404 0.19405,-4.997204 0.26476,-5.390804 0.13907,-0.77457 0.5548,-0.98682 0.56072,-0.28626 0.002,0.23618 0.10278,0.55673 0.22403,0.71246 0.17503,0.22482 0.29172,0.14627 0.56676,-0.38165 0.19056,-0.36563 0.56549,-0.77277 0.83334,-0.90491 0.26772,-0.13205 0.48685,-0.41113 0.48685,-0.62018 0,-0.35361 0.15904,-0.37982 2.2908,-0.37787 3.315198,0.003 4.052998,0.12958 4.052998,0.69544 0,0.31479 0.1874,0.51468 0.60265,0.64294 0.83691,0.25839 2.6231,0.23315 2.831,-0.0401 0.16186,-0.21268 0.28104,-2.9907 0.6961,-16.232 0.0946,-3.0174 0.24815,-5.4861 0.34125,-5.4861 0.23842,0 0.54929,1.1296 0.49881,1.8128 l -0.0423,0.5725 0.3609,-0.5212 c 0.32231,-0.4655 0.48718,-0.51894 1.5411,-0.49968 0.9335,0.0171 1.3012,-0.0707 1.7594,-0.42033 0.42488,-0.3242 0.50116,-0.48112 0.28641,-0.58894 -0.17087,-0.0857 -0.37257,-0.0314 -0.48408,0.13058 -0.10527,0.1527 -0.42924,0.27759 -0.72002,0.27759 -0.29085,0 -0.63788,0.0887 -0.77138,0.1971 -0.13348,0.10838 -0.41365,0.14378 -0.62254,0.0787 -0.34079,-0.10623 -0.36768,-0.63245 -0.26053,-5.1108 0.14229,-5.951 0.13919,-6.0798 -0.15097,-6.3155 -0.37708,-0.30626 -0.26215,-0.43628 0.49417,-0.55913 0.56131,-0.0912 0.80875,-0.28638 1.1161,-0.8806 0.29373,-0.56812 0.53012,-0.76399 0.92348,-0.76543 0.29077,-10e-4 0.53027,0.10541 0.53221,0.23659 0.002,0.16034 0.0602,0.17142 0.17624,0.0338 0.32761,-0.38856 1.0402,-0.46365 1.78,-0.18752 0.4082,0.15233 1.1016,0.34906 1.5408,0.43718 0.98613,0.19777 1.4858,0.97929 0.7291,1.14 -0.60071,0.12755 -0.61295,0.43703 -0.0173,0.43703 0.83214,0 1.259,0.55676 1.0868,1.4176 -0.0854,0.42726 -0.14902,0.90562 -0.14122,1.0631 0.008,0.15742 0.009,0.61288 0.002,1.0122 -0.009,0.52554 0.13698,0.83243 0.5271,1.1118 0.29643,0.21222 0.42816,0.34204 0.2928,0.2885 -0.56206,-0.22229 -0.79765,0.25407 -0.93356,1.8873 -0.2928,3.5193 -0.15843,4.5648 0.60783,4.7275 0.4529,0.0962 0.5269,-0.0656 0.76828,-1.6806 0.0471,-0.31484 0.10142,0.77441 0.12077,2.4206 0.0221,1.8796 -0.0651,3.1928 -0.23457,3.5302 -0.38724,0.77126 -0.80472,15.632 -0.44887,15.98 0.14384,0.14078 1.441,0.40341 2.884,0.58389 1.4424,0.18036 2.7743,0.37528 2.9597,0.43304 0.28923,0.0901 0.32472,1.7797 0.24937,11.876004 -0.0741,9.9252 -0.0359,11.822 0.24345,12.096 0.18222,0.17886 0.48785,0.2764 0.67908,0.2168 0.19278,-0.0601 0.48329,0.0489 0.65207,0.24451 0.16744,0.19412 1.5688,0.8056 3.1142,1.3588 2.4965,0.89365 2.8247,1.0662 2.9431,1.5469 0.10956,0.44504 0.27034,0.55179 0.90581,0.60144 l 0.7726,0.0604 0.0245,9.4457 c 0.0134,5.1951 0.0399,9.5478 0.0587,9.6727 0.0188,0.12482 0.43072,0.25363 0.91534,0.28619 0.80545,0.0542 0.89276,0.11655 1.0171,0.72711 0.23256,1.142 0.425,0.24493 0.54713,-2.5507 0.0636,-1.4553 0.14734,-2.6699 0.18611,-2.6991 0.0388,-0.0292 0.96919,-0.11331 2.0676,-0.18689 1.0984,-0.0736 2.5786,-0.18994 3.2894,-0.25864 l 1.2922,-0.1248 0.1175,-2.4997 c 0.0789,-1.6773 0.22041,-2.6002 0.43033,-2.8052 0.19466,-0.19009 0.7715,-0.32709 1.5272,-0.36264 1.1811,-0.0556 1.2164,-0.074 1.2879,-0.67664 0.0578,-0.48651 0.35226,-0.80386 1.3725,-1.4788 0.71437,-0.47266 1.3685,-0.86408 1.4536,-0.86978 0.085,-0.006 0.63042,-0.0505 1.212,-0.0995 1.3725,-0.11557 1.5911,-0.11298 2.6464,0.0313 1.3666,0.18683 1.5827,-0.0777 1.5827,-1.9376 0,-1.4245 0.0537,-1.6184 0.52212,-1.8848 0.28728,-0.16339 0.93082,-0.29709 1.4302,-0.29709 0.78348,0 0.9427,-0.0749 1.1619,-0.5466 0.35617,-0.7663 1.0379,-1.0478 2.4271,-1.0022 0.84807,0.0279 1.2867,-0.0482 1.504,-0.26086 0.25273,-0.24734 0.62161,-0.27771 2.0934,-0.17239 0.98256,0.0703 2.0509,0.21149 2.3739,0.31369 0.32304,0.10226 1.0204,0.21866 1.5497,0.25861 l 0.9624,0.0728 0.1527,-2.4323 c 0.084,-1.3378 0.15318,-3.9939 0.15372,-5.9024 5.4e-4,-1.9086 0.10117,-3.6842 0.22369,-3.9459 0.14983,-0.32007 0.43529,-0.49591 0.8718,-0.5372 0.86345,-0.0816 0.96797,-0.45358 0.99661,-3.5469 l 0.0234,-2.5315 0.7636,-0.2692 c 0.41997,-0.14807 0.95367,-0.31732 1.186,-0.37607 0.34367,-0.0869 0.39356,-0.23184 0.26753,-0.77719 -0.10156,-0.43991 -0.065,-0.67038 0.10626,-0.67038 0.14365,0 0.26114,0.21805 0.26114,0.48465 0,0.90561 0.89511,1.8964 3.857,4.2694 1.6262,1.3028 2.9571,2.4621 2.9576,2.5761 8.7e-4,0.20224 1.7414,0.87515 2.2636,0.87515 0.14432,0 0.39624,-0.13095 0.55984,-0.29108 0.26544,-0.2597 0.34468,-0.25629 0.73683,0.0319 0.2581,0.1897 1.1891,0.40817 2.257,0.52957 l 1.8178,0.2066 -0.0928,9.6842 -0.0928,9.6842 0.6802,0.0202 c 0.37398,0.0111 0.97919,0.004 1.3447,-0.016 0.36558,-0.0199 0.87381,0.11758 1.1295,0.30548 0.34138,0.25092 1.0073,0.36942 2.5072,0.44614 2.2999,0.11771 2.6298,0.22488 2.6298,0.85403 0,0.7771 0.40579,0.85342 4.5449,0.85489 3.1261,0.001 3.9606,-0.0526 4.0592,-0.26141 0.0683,-0.14453 0.20816,-0.84964 0.31081,-1.567 l 0.1865,-1.3042 0.0345,1.1449 c 0.0295,0.97879 0.41626,2.0994 0.5269,1.5266 0.0587,-0.30399 0.12166,-0.90457 0.16508,-1.5743 0.0645,-0.99469 0.5101,-0.71378 0.5101,0.32147 0,1.4419 0.29407,1.8992 1.2076,1.8781 0.5347,-0.0124 0.8611,0.10486 1.0976,0.39414 0.26927,0.32935 0.56898,0.41171 1.4982,0.41171 2.0376,0 2.0705,0.044 2.0705,2.7736 0,2.1996 0.0331,2.3785 0.44115,2.3785 0.24258,0 0.57564,-0.13168 0.74011,-0.29257 0.26631,-0.26068 0.35281,-0.25266 0.79234,0.0735 0.27135,0.20132 0.72586,0.42325 1.01,0.49313 0.2842,0.07 0.57739,0.28247 0.65154,0.47229 0.10316,0.26407 0.47554,0.37408 1.585,0.46826 0.79759,0.0677 1.5355,0.0538 1.6397,-0.0308 0.10425,-0.0847 0.30341,-4.4001 0.44267,-9.5898 0.20932,-7.8018 0.31242,-9.4854 0.59534,-9.7221 0.28755,-0.24051 1.4851,-0.29169 7.5012,-0.32034 3.9374,-0.0188 7.7233,-0.0914 8.413,-0.16135 1.0193,-0.10346 1.4919,-0.0454 2.5246,0.3103 0.69876,0.24066 1.3508,0.52792 1.4492,0.63837 0.0983,0.1105 0.10797,4.2582 0.0216,9.2172 -0.10718,6.1514 -0.08,9.0163 0.0853,9.0163 0.1601,0 0.30096,-2.7393 0.41452,-8.0622 0.10599,-4.9612 0.26401,-8.154 0.41095,-8.3007 0.13126,-0.13123 0.64493,-0.23856 1.1415,-0.23856 1.041,0 1.3891,-0.35214 1.3891,-1.405 0,-1.066 0.43826,-1.2661 2.7776,-1.2692 2.4191,-0.003 3.0352,-0.11279 3.2148,-0.57254 0.17337,-0.44366 2.1452,-0.65308 5.5204,-0.5863 4.36681,0.0864 4.57371,0.10605 4.65321,0.44122 0.13913,0.58655 1.1016,0.87509 3.3539,1.0055 1.2173,0.0705 2.4149,0.17398 2.6614,0.23007 0.43375,0.0986 0.44354,0.3291 0.30759,7.231 -0.0772,3.921 -0.0597,7.1697 0.039,7.2192 0.15851,0.0796 0.52502,-3.5062 0.84686,-8.2868 0.35941,-5.3372 0.80826,-7.6395 1.5926,-8.1681 0.17166,-0.11563 1.8712,-0.21777 4.0522,-0.24347 2.0662,-0.0243 3.8888,-0.0829 4.0503,-0.13025 0.19434,-0.0569 0.29367,-0.50949 0.29367,-1.3377 0,-1.4933 0.27622,-1.4701 0.32117,0.0269 0.0172,0.57382 0.11822,1.1148 0.22436,1.2022 0.10626,0.0874 1.8503,0.28769 3.8758,0.44513 l 3.6828,0.2862 0.3281,0.7633 c 0.18039,0.41977 0.39227,1.7069 0.47082,2.8603 l 0.1427,2.097 1.2923,0.1436 c 0.71069,0.079 1.5383,0.19052 1.8391,0.24789 l 0.5468,0.1043 -0.0596,11.811 c -0.0624,12.379 -0.0597,12.415 0.93308,12.404 0.21033,-0.002 0.64676,-0.16919 0.96979,-0.37073 l 0.5874,-0.3664 0.1643,-8.3397 c 0.0903,-4.5868 0.21921,-8.4559 0.28635,-8.5979 0.0797,-0.16864 0.52234,-0.2583 1.2754,-0.2583 0.69501,0 1.2605,-0.10483 1.423,-0.26382 0.17422,-0.1705 0.29602,-1.4869 0.34433,-3.723 0.0413,-1.9026 0.14761,-3.5182 0.23633,-3.5903 0.0889,-0.0721 0.15036,1.5153 0.13687,3.5275 -0.0136,2.0122 0.0423,3.7466 0.12415,3.8541 0.0818,0.10754 0.66489,0.1955 1.2958,0.1955 0.63089,0 1.219,0.0947 1.307,0.2103 0.088,0.11566 0.14661,0.95291 0.13016,1.8605 -0.036,1.9883 0.13052,2.302 0.98227,1.8488 0.50836,-0.27054 0.80115,-0.28839 1.9363,-0.11795 0.73566,0.11044 1.4574,0.13806 1.604,0.0614 0.43152,-0.22589 1.4134,-0.19681 1.7936,0.0531 0.19388,0.12738 0.95764,0.27942 1.6974,0.33789 0.73972,0.0585 1.4533,0.16074 1.586,0.22726 0.15399,0.0773 0.24097,1.8035 0.24097,4.7848 v 4.6639 h 1.0285 c 0.56567,0 1.1311,-0.10736 1.2565,-0.23852 0.41257,-0.43167 1.2393,-4.6516 1.2393,-6.3256 0,-1.6246 0.006,-1.6412 0.58902,-1.6412 0.5882,0 0.58881,0.002 0.43991,1.3834 -0.082,0.7609 -0.24142,1.465 -0.35406,1.5647 -0.42279,0.37387 -0.21027,1.2645 0.40402,1.6936 0.6333,0.44244 0.75235,0.95004 0.45889,1.958 -0.21625,0.74286 0.30994,1.22389 1.3386,1.22389 0.40054,0 0.92926,0.1477 1.1749,0.32825 0.33932,0.2493 0.90952,0.33374 2.3719,0.35107 1.0589,0.0126 2.1697,0.12909 2.4685,0.25888 0.29864,0.12988 0.69629,0.18832 0.8837,0.12994 0.18726,-0.0583 0.51971,0.0639 0.73865,0.27158 0.35037,0.33234 0.69525,0.37735 2.8718,0.37506 3.169,-0.003 3.4861,-0.0754 3.6472,-0.82941 0.0705,-0.32956 0.20523,-2.6581 0.29947,-5.1746 l 0.1714,-4.5755 0.7048,-0.1758 c 0.3877,-0.0967 1.0381,-0.29175 1.4452,-0.43356 0.40726,-0.14182 1.0086,-0.25781 1.3366,-0.25781 0.52759,0 0.61468,-0.10007 0.75671,-0.86957 0.11212,-0.60709 0.32507,-0.95709 0.70544,-1.1595 0.29965,-0.15948 0.57752,-0.51611 0.61743,-0.7926 0.0816,-0.56476 0.62305,-0.754 2.246,-0.78491 l 0.9985,-0.019 0.0506,-4.8182 c 0.0279,-2.6501 0.0542,-5.3931 0.0587,-6.0956 0.004,-0.70252 0.1138,-1.3559 0.2431,-1.452 0.20804,-0.15454 1.7404,-0.40848 4.699,-0.77866 0.88498,-0.11075 0.94675,-0.16135 1.0574,-0.86597 0.0646,-0.41162 0.23654,-0.78021 0.3822,-0.81906 0.38461,-0.10269 0.595,0.48618 0.32184,0.90082 -0.12872,0.19537 -0.23413,0.39383 -0.23413,0.44095 0,0.24445 1.6135,0.35495 7.2396,0.49567 3.49019,0.0873 6.2835,0.23691 6.41479,0.34351 0.14713,0.11948 0.24943,4.3841 0.27887,11.615 l 0.0464,11.426 1.7841,-0.0124 c 0.9812,-0.007 1.9428,-0.062 2.13689,-0.1225 0.27417,-0.0854 0.38917,-0.63275 0.51609,-2.4566 0.0898,-1.2906 0.22057,-2.3933 0.29071,-2.4504 0.0701,-0.057 1.07749,-0.15097 2.23869,-0.2088 1.4731,-0.0733 2.1744,-0.18811 2.3202,-0.37982 0.17868,-0.23474 0.31418,-0.22436 0.93104,0.0716 0.53677,0.25751 1.45799,0.3794 3.593,0.47525 l 2.87109,0.129 0.14271,2.4807 c 0.0784,1.3644 0.15768,2.5088 0.17615,2.5433 0.0184,0.0344 0.37717,0.0434 0.79712,0.02 1.598,-0.0893 3.4657,0.0205 3.4657,0.20367 0,0.10492 -0.44934,0.20157 -0.99863,0.21469 l -0.9986,0.0239 1.0574,0.1528 c 0.58142,0.084 1.4944,0.15918 2.0288,0.16696 0.75906,0.011 1.0535,0.11572 1.3464,0.47885 0.24472,0.30331 0.64169,0.4855 1.1431,0.52475 l 0.7682,0.0601 0.0638,3.7687 c 0.0387,2.2958 0.1536,3.7687 0.29367,3.7687 0.12643,0 0.22995,-0.25461 0.22995,-0.56574 0,-0.67651 0.53079,-0.95978 1.8055,-0.9635 1.3664,-0.004 1.9003,-0.18012 2.0541,-0.67773 0.0771,-0.24945 0.35046,-0.54489 0.6073,-0.65656 0.48132,-0.20926 0.64978,-0.76208 0.23218,-0.76208 -0.12921,0 -0.23492,-0.17175 -0.23492,-0.38162 0,-0.20996 0.15652,-0.38168 0.34796,-0.38168 0.37109,0 0.41797,-0.12384 0.83011,-2.1944 0.37231,-1.8701 0.94144,-4.3374 1.0749,-4.6594 0.34348,-0.82922 0.86655,1.2387 2.0785,8.2167 0.13342,0.76831 0.23782,0.89883 0.78684,0.98404 0.34824,0.0541 0.81229,0.0204 1.0313,-0.0748 0.21899,-0.0952 0.77521,-0.17313 1.236,-0.17313 0.72653,0 0.83771,0.0605 0.83771,0.45584 0,0.36917 0.15506,0.47943 0.81592,0.58011 0.44888,0.0684 0.90695,0.25641 1.0182,0.41785 0.16879,0.24484 0.26987,0.20981 0.60953,-0.21124 0.32016,-0.39676 0.34744,-0.56332 0.12784,-0.77823 -0.21777,-0.21307 -0.20822,-0.34354 0.043,-0.59076 0.25137,-0.24731 0.25769,-0.33499 0.0288,-0.39758 -0.1615,-0.0441 -0.29373,-0.24057 -0.29373,-0.43649 0,-0.19595 -0.17334,-0.43506 -0.38541,-0.53143 -0.21194,-0.0964 -0.31033,-0.27377 -0.21866,-0.39426 0.0916,-0.12048 0.25266,-0.17587 0.35779,-0.12314 0.10513,0.0528 0.45538,-0.0729 0.77844,-0.27927 0.32303,-0.20642 0.86414,-0.46072 1.2024,-0.56519 0.38821,-0.11984 0.61502,-0.33466 0.61502,-0.58224 0,-0.21582 0.13214,-0.43149 0.29373,-0.47934 0.88242,-0.26126 5.45,-0.62427 8.2373,-0.65463 0.49216,-0.005 0.83765,-0.0848 0.76782,-0.1767 -0.14749,-0.19379 0.52206,-1.8859 0.80173,-2.0262 0.10373,-0.052 0.47168,0.0247 0.81775,0.17053 0.74194,0.31256 2.4037,0.19666 2.9771,-0.20764 0.25674,-0.181 0.84677,-0.25836 1.7655,-0.23144 1.3039,0.0382 1.954,-0.12262 2.9005,-0.71747 0.19379,-0.12186 0.95883,-0.20773 1.7001,-0.19086 1.2358,0.0281 1.4309,0.0957 2.3496,0.81311 0.9975,0.77905 1.0114,0.78287 3.2496,0.89899 1.2363,0.0641 2.4141,0.16849 2.6175,0.23178 0.25684,0.08 0.41916,0.4902 0.53162,1.3432 0.16742,1.2701 0.39624,1.5035 0.82938,0.84631 0.13831,-0.20993 0.20441,-0.38165 0.14691,-0.38165 -0.0575,0 0.0407,-0.49377 0.21832,-1.0973 0.17758,-0.60346 0.33917,-1.9989 0.35901,-3.1008 0.0199,-1.102 0.10346,-2.2613 0.18573,-2.5761 0.13428,-0.51404 0.25131,-0.57846 1.147,-0.63113 0.93838,-0.0552 0.99747,-0.093 0.99747,-0.638 0,-0.41888 0.13007,-0.60706 0.46985,-0.6792 0.29514,-0.0627 0.46997,-0.26028 0.46997,-0.53122 0,-0.63004 0.54654,-0.89838 1.6914,-0.83054 l 1.0105,0.0599 0.0694,-1.2828 c 0.0582,-1.0753 0.14923,-1.3176 0.56308,-1.4974 0.64291,-0.27951 0.96799,0.13794 1.1296,1.4508 l 0.1175,0.9541 1.7097,0.124 c 1.9926,0.14453 2.402,0.35504 2.402,1.2351 0,0.35452 0.10574,0.64456 0.23498,0.64456 0.12924,0 0.23498,-0.12884 0.23498,-0.28622 0,-0.21201 0.27405,-0.28626 1.0572,-0.28626 0.9006,0 1.0572,0.0565 1.0572,0.38165 0,0.69611 1.426,1.5266 2.6214,1.5266 0.46051,0 0.47354,-0.0934 0.39584,-2.8334 -0.0561,-1.9804 -0.17343,-2.9245 -0.38974,-3.1358 -0.25803,-0.25223 -0.24634,-0.38052 0.0706,-0.77344 0.5993,-0.74271 0.85043,-3.5942 0.80954,-9.191 l -0.0376,-5.1522 0.9971,-1.7174 c 0.5484,-0.94458 1.4166,-2.4381 1.9294,-3.3189 0.70462,-1.2102 0.89774,-1.7422 0.7904,-2.1778 -0.0924,-0.37534 -0.0232,-0.68289 0.19833,-0.88174 0.26096,-0.23413 0.37683,-1.1954 0.49661,-4.1193 0.086,-2.0977 0.21307,-3.89 0.28244,-3.9828 0.30554,-0.40958 0.74838,0.85413 0.7612,2.1725 0.008,0.78717 0.11893,1.7746 0.24716,2.1945 0.12826,0.4198 0.2713,1.4754 0.31775,2.3457 0.0464,0.87036 0.13873,1.6265 0.20505,1.6804 0.10892,0.0885 4.8999,0.47107 6.6338,0.52976 l 0.7048,0.0239 0.0619,-1.3358 c 0.0341,-0.73468 0.15811,-1.5075 0.27554,-1.7174 0.11749,-0.20993 0.27686,-1.2186 0.35394,-2.2416 0.13174,-1.7463 0.45392,-2.8152 0.84839,-2.8152 0.36487,0 0.44196,0.66003 0.33588,2.8766 -0.0659,1.3769 -0.005,2.6178 0.15097,3.0974 0.14337,0.44006 0.24738,1.0578 0.23102,1.3726 -0.0165,0.31485 -0.0374,0.83005 -0.0468,1.145 -0.0104,0.35245 0.75607,1.8558 1.9942,3.9118 l 2.0109,3.3394 -0.1879,4.866 c -0.11392,2.9506 -0.10068,5.204 0.0337,5.7246 0.1218,0.47229 0.24149,3.8212 0.26602,7.4421 0.0606,8.9654 0.034,8.587 0.60339,8.587 0.50192,0 0.65591,-0.49033 0.19339,-0.61557 -0.15204,-0.0411 -0.19769,-0.17853 -0.10129,-0.30521 0.23807,-0.3128 0.61279,-0.0951 0.61279,0.35593 0,0.42465 1.2045,0.7786 1.36,0.39966 0.0567,-0.13831 0.40533,-0.002 0.90158,0.3515 0.44504,0.31735 1.0169,0.57696 1.2709,0.57696 0.25394,0 0.46164,0.0782 0.46164,0.17392 0,0.25967 0.66281,0.13095 1.1809,-0.22928 0.25064,-0.17429 0.61743,-0.26642 0.81512,-0.20477 0.42728,0.13318 1.0346,-0.23663 1.2922,-0.78684 0.14505,-0.30984 0.41379,-0.40286 1.2488,-0.4324 0.62671,-0.0222 1.5009,-0.23569 2.1268,-0.5195 0.58444,-0.26498 1.3331,-0.48181 1.6635,-0.48181 0.51111,0 0.60098,0.0856 0.60098,0.57245 0,0.31488 0.10565,0.57248 0.23489,0.57248 0.12927,0 0.2366,-0.10736 0.23855,-0.23852 0.002,-0.16504 0.0568,-0.17386 0.17625,-0.0286 0.095,0.11551 0.40814,0.3107 0.69601,0.43381 0.44015,0.18817 0.50159,0.17783 0.38678,-0.0652 -0.18256,-0.38644 0.52435,-0.59228 0.9798,-0.28531 0.29355,0.19782 0.41379,0.17712 0.67828,-0.11658 0.17685,-0.19641 0.28433,-0.51398 0.23889,-0.70572 -0.0455,-0.19171 0.0708,-0.39639 0.25851,-0.45493 0.27194,-0.0847 0.345,-0.59595 0.36008,-2.5189 0.0104,-1.3269 0.14255,-2.7985 0.29372,-3.2703 0.26402,-0.82419 0.31773,-0.8641 1.37391,-1.02 1.0405,-0.15356 1.1054,-0.19946 1.21509,-0.85965 0.0637,-0.38361 0.13008,-1.1268 0.14753,-1.6516 0.0373,-1.1271 0.29468,-1.4237 0.94774,-1.0925 0.79047,0.401 2.25571,0.29047 2.8809,-0.21728 0.51728,-0.4201 0.63818,-0.43735 1.75961,-0.25073 0.66241,0.11017 1.158,0.26126 1.10139,0.33566 -0.31311,0.41135 1.7254,0.48514 2.3752,0.086 0.52565,-0.32294 2.1475,-0.3674 3.5104,-0.0962 1.65781,0.3298 5.548,0.43033 6.5245,0.16861 0.68012,-0.18231 0.95569,-0.18597 1.1656,-0.0155 0.33874,0.27512 2.3859,0.30563 2.1781,0.0324 -0.32654,-0.42902 2.7563,-0.0194 3.3241,0.44174 0.0885,0.0719 0.38654,0.13074 0.66217,0.13074 0.77649,0 1.0652,0.37585 1.0652,1.3868 0,0.84543 0.0426,0.91782 0.47516,0.8063 0.7392,-0.19052 1.8505,0.0857 2.1454,0.5332 0.16699,0.25342 0.25794,1.4106 0.24268,3.0867 -0.0145,1.5718 0.076,2.7992 0.21863,2.9662 0.18317,0.21457 0.27264,0.22598 0.36237,0.0463 0.14532,-0.29086 1.008,-0.3075 1.4898,-0.0287 0.26562,0.15366 0.14972,0.17542 -0.46991,0.0882 -0.79297,-0.11166 -0.80408,-0.10538 -0.3081,0.1774 0.60553,0.34522 2.4227,0.53226 2.4227,0.24933 0,-0.1062 0.15698,-0.14416 0.34882,-0.0844 0.20599,0.0641 0.45142,-0.0469 0.59924,-0.27115 0.13763,-0.20898 0.34778,-0.33096 0.46686,-0.27121 0.2392,0.12012 1.4045,-0.43677 1.4045,-0.6712 0,-0.0812 -0.1322,-0.14371 -0.2937,-0.13886 -0.81769,0.0247 -1.351,-0.0708 -1.351,-0.24206 0,-0.10492 0.24792,-0.1908 0.55096,-0.1908 0.30304,0 0.74414,-0.1734 0.98029,-0.38525 0.39752,-0.35672 0.50104,-0.78778 0.65491,-2.7255 0.0317,-0.39896 0.19196,-0.79288 0.35608,-0.87528 0.35748,-0.17941 0.59161,-2.087 0.39356,-3.2076 -0.1109,-0.62817 -0.22174,-0.77606 -0.51337,-0.68518 -0.3999,0.12463 -0.39868,0.12036 0.26215,-0.93243 0.41534,-0.66196 0.41821,-0.73871 0.0504,-1.3683 -0.21429,-0.36679 -0.45483,-0.93137 -0.5343,-1.2546 -0.13739,-0.55777 0.009,-0.69186 0.66754,-0.61301 0.0914,0.0109 0.22876,-0.25796 0.30524,-0.59756 0.18103,-0.8027 0.24262,-9.6955 0.0936,-13.498 -0.0637,-1.6267 -0.0284,-4.0047 0.0786,-5.2842 0.23688,-2.8338 -0.0682,-6.8893 -0.53595,-7.124 -0.2699,-0.1355 -0.2666,-0.24365 0.0206,-0.67956 0.1878,-0.2851 0.30963,-0.671694 0.27063,-0.859074 -0.12018,-0.57654 0.79394,-0.82095 3.4084,-0.91122 0.66571,-0.023 0.77081,-0.10336 0.90729,-0.69385 0.16467,-0.71329 0.26038,-0.74734 1.9063,-0.67749 0.95264,0.0404 0.98956,0.0198 1.2322,-0.68994 0.13763,-0.40237 0.25073,-0.91858 0.25146,-1.1472 0.002,-0.4729 1.0215,-1.2064 1.6777,-1.2064 0.35303,0 0.43817,-0.14529 0.43817,-0.74771 0,-1.0345 0.19507,-1.3514 0.83215,-1.3514 0.3009,0 0.81818,-0.0837 1.1497,-0.1861 0.57031,-0.17615 0.60278,-0.26065 0.60522,-1.5742 0.001,-0.76355 0.0689,-1.7137 0.14978,-2.1116 0.14069,-0.69101 0.15918,-0.7038 0.41553,-0.28619 0.20087,0.32715 0.4693,0.43713 1.0668,0.43713 0.68634,0 0.82471,-0.0794 0.9845,-0.56479 0.12573,-0.3819 0.0932,-0.61267 -0.10052,-0.71262 -0.44104,-0.22763 -1.6866,-0.18076 -2.0018,0.0752 -0.2193,0.17813 -0.28192,0.0231 -0.28192,-0.69745 0,-0.88547 0.019,-0.91244 0.42969,-0.61063 0.28326,0.20816 0.84381,0.3158 1.6447,0.3158 1.1299,0 1.2174,-0.0334 1.2501,-0.47705 0.0195,-0.26239 0.0458,-0.58438 0.0588,-0.71558 0.0168,-0.17133 -0.47302,-0.23852 -1.7386,-0.23852 h -1.7622 l -0.0735,-0.6202 c -0.0704,-0.59219 0.23566,-0.83389 0.54352,-0.42935 0.21039,0.27652 1.9269,0.23654 2.0499,-0.0477 0.0569,-0.1312 0.0364,-0.45322 -0.0452,-0.71561 -0.1322,-0.42532 -0.27423,-0.47873 -1.3115,-0.49277 l -1.1633,-0.0157 -0.072,-1.1212 c -0.12604,-1.9659 -0.0951,-1.9959 2.0652,-1.9959 1.6448,0 1.8978,0.0468 2.126,0.3932 0.35468,0.53833 1.2173,0.41608 1.4278,-0.20236 0.0894,-0.26239 0.17456,-1.5934 0.18939,-2.9578 0.0271,-2.4854 0.22284,-3.2509 0.72639,-2.8418 0.15808,0.12833 0.27441,1.3191 0.30359,3.1064 0.0504,3.0957 0.11346,3.2563 1.2807,3.2627 0.36078,0.002 0.52862,0.11764 0.52862,0.36417 0,0.37814 -0.43256,0.59286 -1.194,0.59286 -0.45618,0 -0.54523,0.16809 -0.45477,0.8587 0.0772,0.5896 0.492,0.88336 1.1587,0.82059 0.47156,-0.0445 0.6076,0.0268 0.6076,0.31833 0,0.28952 -0.22894,0.41235 -0.99866,0.53595 -0.82593,0.13269 -0.99854,0.23581 -0.99854,0.59662 0,0.66003 0.77551,1.1528 1.3924,0.88458 0.42883,-0.18631 0.52234,-0.14816 0.73102,0.29758 0.13159,0.28122 0.50067,0.76355 0.82019,1.0718 0.75384,0.72763 0.73456,1.0641 -0.0654,1.1388 -0.83026,0.0776 -1.0007,0.78394 -0.32996,1.3671 0.31396,0.27295 0.52789,0.81284 0.63812,1.6101 0.11261,0.81595 0.28906,1.2533 0.55176,1.3674 0.2124,0.0923 1.2261,0.2627 2.2526,0.37869 1.0266,0.11597 1.9752,0.29944 2.1083,0.40774 0.13568,0.11054 0.2193,0.88397 0.19037,1.7612 -0.0744,2.261 -0.0284,2.3555 1.2186,2.5074 1.1445,0.13937 1.3007,0.25534 1.5206,1.1286 0.14465,0.57477 0.15656,0.57877 1.7834,0.60098 0.90076,0.0124 1.8176,0.0891 2.0376,0.17056 0.21997,0.0815 0.53076,0.0825 0.69061,0.002 0.4519,-0.22681 5.6747,-0.26978 6.0016,-0.0494 0.15747,0.10617 0.49579,0.13907 0.75165,0.0731 0.65253,-0.16824 8.5059,-0.23004 8.6292,-0.068 0.0557,0.0731 0.33691,0.0833 0.62482,0.0225 0.28821,-0.0608 0.85132,-0.12826 1.2517,-0.14996 0.40033,-0.0217 0.85071,-0.10104 1.0007,-0.17633 0.14996,-0.0753 0.45685,-0.0923 0.6817,-0.0379 0.80664,0.19516 3.7419,0.16721 6.1266,-0.0583 2.1097,-0.19949 2.5004,-0.19119 2.9782,0.0631 0.30249,0.16098 0.58423,0.216 0.62616,0.12231 0.0421,-0.0937 1.2922,-0.23019 2.7783,-0.30338 1.4861,-0.0732 2.7653,-0.16306 2.8425,-0.19983 0.0774,-0.0367 1.2613,-0.15289 2.6309,-0.2583 1.6876,-0.12985 2.777,-0.3165 3.3801,-0.57901 0.48962,-0.2131 1.042,-0.38748 1.2275,-0.38748 0.18561,0 0.52411,-0.13721 0.75226,-0.30496 0.22815,-0.16766 0.5274,-0.2485 0.66461,-0.17954 0.17638,0.0882 0.25036,28.894004 0.25036,97.338004 v 97.212 H -3.9241984e-6 v -76.679 z M 362.74052,147.45912 c 0.0345,-0.96948 0.14194,-1.8497 0.23895,-1.9559 0.0968,-0.1062 0.19196,-0.59238 0.21112,-1.0804 0.0315,-0.79572 -0.0128,-0.87708 -0.42871,-0.7887 -0.25516,0.0542 -0.47009,0.23874 -0.47778,0.41019 -0.18604,4.1522 -0.16568,5.1776 0.1026,5.1776 0.20615,0 0.30951,-0.51502 0.35382,-1.7628 z m 112.1,-2.817 c 0,-0.10492 -0.15863,-0.19076 -0.35248,-0.19076 -0.19379,0 -0.35242,0.0858 -0.35242,0.19076 0,0.10498 0.15863,0.19086 0.35242,0.19086 0.19385,0 0.35248,-0.0859 0.35248,-0.19086 z m 7.3166,-0.3816 c 0.66638,0 1.0324,-0.25299 0.8027,-0.55481 -0.0748,-0.0981 -0.63797,-0.0418 -1.2994,0.1301 -0.93915,0.2439 -1.1157,0.35406 -0.90237,0.56287 0.18399,0.18014 0.34033,0.19873 0.51025,0.0607 0.13467,-0.10938 0.53464,-0.19888 0.88886,-0.19888 z m -444.800014,-2.5761 c 0,-0.15744 -0.1715,-0.28622 -0.38115,-0.28622 -0.31222,0 -0.32828,0.0518 -0.0888,0.28622 0.36831,0.36038 0.46991,0.36038 0.46991,0 z m -32.8349999,-0.5566 c 0.0323,-0.0962 -0.0734,-0.21066 -0.23495,-0.25442 -0.16152,-0.0437 -0.2937,0.0636 -0.2937,0.23852 0,0.32312 0.42121,0.33582 0.52865,0.0159 z m 31.4249999,-0.4929 c 0,-0.10501 -0.10573,-0.19083 -0.23496,-0.19083 -0.12919,0 -0.23496,0.0858 -0.23496,0.19083 0,0.10495 0.10577,0.1908 0.23496,0.1908 0.12922,0 0.23496,-0.0858 0.23496,-0.1908 z m -2.467,-2.3853 c 0,-0.10495 -0.39647,-0.21747 -0.8811,-0.25006 -0.82625,-0.0555 -1.0994,0.10455 -0.71326,0.41812 0.24467,0.1987 1.5944,0.0565 1.5944,-0.16806 z m 3.7842,-0.4435 c 0.0247,-0.39951 -0.0717,-0.60599 -0.28295,-0.60599 -0.36636,0 -0.68943,0.82617 -0.44746,1.1442 0.28859,0.37924 0.69199,0.082 0.7304,-0.53818 z m -2.2595,0.2552 c 0.1595,-0.1561 0.22309,-0.42542 0.14135,-0.59845 -0.13614,-0.28812 -0.18787,-0.28586 -0.61368,0.0271 -0.25576,0.18802 -0.46503,0.45731 -0.46503,0.59848 0,0.34329 0.57584,0.32666 0.93736,-0.0271 z m 3.5268,-0.3 c 0,-0.0988 -0.1586,-0.17954 -0.35245,-0.17954 -0.36334,0 -0.46675,0.22516 -0.20219,0.44006 0.1877,0.15244 0.55463,-0.0199 0.55463,-0.26053 z m -5.467,-1.3245 c 0.079,0 0.33732,0.14246 0.57416,0.31653 0.6037,0.44373 1.6035,0.0775 1.6035,-0.5874 0,-0.60773 -0.32775,-0.76016 -0.99365,-0.46213 -0.29346,0.13132 -0.71854,0.21576 -0.94469,0.18765 -0.22615,-0.0281 -0.41116,0.0342 -0.41116,0.13849 0,0.10422 -0.22578,0.21695 -0.50177,0.25046 -0.27592,0.0336 -0.65871,0.254 -0.85058,0.48993 -0.33184,0.40787 -0.31014,0.44217 0.44299,0.70071 l 0.7919,0.2719 0.0729,-0.6531 c 0.0401,-0.35919 0.13749,-0.65305 0.21644,-0.65305 z m 34.365996,0.9654 c 0,-0.0988 -0.10574,-0.23267 -0.23492,-0.29752 -0.12925,-0.0649 -0.23498,0.016 -0.23498,0.17956 0,0.16364 0.10574,0.29752 0.23498,0.29752 0.12919,0 0.23492,-0.0808 0.23492,-0.17956 z m 0,-1.347 c 0,-0.2099 -0.10574,-0.38162 -0.23492,-0.38162 -0.12925,0 -0.23498,0.17172 -0.23498,0.38162 0,0.20993 0.10574,0.38165 0.23498,0.38165 0.12919,0 0.23492,-0.17172 0.23492,-0.38165 z m -30.484996,-0.098 c -0.0865,-0.27731 -0.59026,-0.22882 -0.71232,0.0685 -0.0686,0.16721 0.0475,0.23285 0.33286,0.18823 0.241,-0.0377 0.4118,-0.1532 0.37947,-0.25678 z m 30.583996,-1.7235 c 0.16608,-0.53754 -0.0117,-0.91635 -0.3504,-0.74637 -0.27955,0.14032 -0.28775,1.2322 -0.009,1.2322 0.11521,0 0.277,-0.21866 0.35961,-0.48587 z m 499.180018,-7.7195 c 0,-0.10495 -0.15851,-0.1908 -0.35236,-0.1908 -0.19385,0 -0.35248,0.0858 -0.35248,0.1908 0,0.10495 0.15863,0.19086 0.35248,0.19086 0.19385,0 0.35236,-0.0859 0.35236,-0.19086 z m -2.0753,-0.7433 c 0.043,-0.094 1.2413,-0.22024 2.6628,-0.28061 1.4214,-0.0604 3.3245,-0.24295 4.2291,-0.4057 0.90454,-0.16278 2.8077,-0.32904 4.2292,-0.36951 1.4215,-0.0405 2.7487,-0.1272 2.9494,-0.19269 0.20062,-0.0656 0.54999,-0.37378 0.77643,-0.68497 0.36902,-0.50757 0.42102,-1.3553 0.50433,-8.2299 0.0729,-6.0158 0.15863,-7.6979 0.39838,-7.8215 0.31928,-0.16443 1.0092,-0.2002 4.5728,-0.23657 1.1838,-0.0121 2.2369,-0.09 2.3398,-0.17319 0.10297,-0.0831 0.16248,-0.901 0.13226,-1.8175 -0.0371,-1.1247 0.0425,-1.765 0.24469,-1.9696 0.2041,-0.20664 1.0389,-0.37369 2.6218,-0.52454 1.2772,-0.12176 2.4038,-0.26236 2.5035,-0.31247 0.35321,-0.17722 -0.0576,-0.81061 -0.67535,-1.0413 -0.36346,-0.13571 -1.5384,-0.22705 -2.7996,-0.21774 -1.7715,0.0131 -2.1733,-0.0361 -2.1733,-0.26648 0,-0.37094 -0.15161,-0.35672 -0.9165,0.0856 -0.41284,0.23871 -0.75208,0.31024 -0.96497,0.20343 -0.18054,-0.0906 -0.42188,-0.11771 -0.53656,-0.0602 -0.18439,0.0926 -1.2496,0.0944 -6.2753,0.0106 -0.71069,-0.0118 -1.6624,-0.009 -2.1146,0.007 -0.45227,0.0156 -1.351,0.0286 -1.9971,0.0289 -0.64612,2.4e-4 -1.862,0.0153 -2.702,0.0335 -0.8399,0.0182 -2.003,0.0199 -2.5845,0.004 -1.4542,-0.0398 -5.034,0.1084 -6.4877,0.26858 l -1.2013,0.1323 -0.1497,1.4389 c -0.19196,1.8441 -0.19672,20.988 -0.005,21.765 0.1247,0.50598 0.26123,0.59616 0.99872,0.65964 1.6766,0.14441 2.3433,0.13525 2.4205,-0.0331 z M 545.99331,90.186916 c 0.0998,-0.70975 -0.23132,-0.98285 -0.86023,-0.70947 -0.41302,0.17954 -0.54584,0.76129 -0.30109,1.3184 0.0148,0.0335 0.26471,0.0335 0.55548,0 0.38495,-0.0444 0.54962,-0.20993 0.60584,-0.60898 z m 0.98,-2.2077 c 0,-0.30862 -0.10565,-0.61426 -0.23492,-0.67914 -0.13983,-0.0702 -0.23498,0.15707 -0.23498,0.56125 0,0.3735 0.10577,0.67914 0.23498,0.67914 0.12927,0 0.23492,-0.25256 0.23492,-0.56125 z m 1.6849,-0.5179 c 0.58588,-0.43066 0.54047,-0.9519 -0.0949,-1.0868 -0.69348,-0.14728 -0.85931,0.034 -0.71582,0.78247 0.13605,0.70944 0.21783,0.74014 0.81073,0.30438 z m 2.77921,-0.7542 c 0,-0.14618 -0.21149,-0.26578 -0.46997,-0.26578 -0.44226,0 -0.63886,0.37161 -0.32947,0.62289 0.2287,0.18573 0.79944,-0.0692 0.79944,-0.35712 z m -2.39651,-1.8305 c 0.15503,-0.12598 0.28192,-0.42654 0.28192,-0.66791 0,-0.43445 -0.0472,-0.45148 -1.4559,-0.52496 -0.2193,-0.0114 -0.47479,-0.0827 -0.56787,-0.1582 -0.29663,-0.24091 -0.79572,-0.14761 -0.79572,0.14886 0,0.16049 0.20978,0.28622 0.47723,0.28622 0.43182,0 0.54138,0.11957 0.8302,0.9064 0.11139,0.30338 0.86114,0.30924 1.2301,0.01 z m -0.2397,-2.2994 c 0.2348,-0.23264 0.36829,-0.75998 0.31378,-1.2404 -0.0151,-0.13296 -0.33917,-0.23856 -0.73193,-0.23856 -0.66064,0 -0.70496,0.0459 -0.70496,0.73148 0,0.40231 0.0706,0.78873 0.15674,0.8587 0.24768,0.20123 0.70404,0.14868 0.96637,-0.11127 z m -1.593,-1.4005 c 0,-1.0312 -0.39484,-1.1804 -2.4083,-0.91006 -0.73315,0.0984 -0.88104,0.19522 -0.88104,0.57651 0,0.56528 0.64545,0.79593 2.1732,0.77655 0.9953,-0.0125 1.1161,-0.0605 1.1161,-0.44299 z m -438.42,-4.9444 c 0,-0.14504 -0.10573,-0.31677 -0.23492,-0.38165 -0.13376,-0.0671 -0.23498,0.0972 -0.23498,0.38165 0,0.28447 0.10123,0.44879 0.23498,0.38162 0.1292,-0.0649 0.23492,-0.23659 0.23492,-0.38162 z m 2.3495,-0.6904 c 0,-0.10495 -0.10573,-0.13777 -0.23492,-0.0729 -0.12926,0.0648 -0.23498,0.20378 -0.23498,0.30873 0,0.10498 0.10573,0.13777 0.23498,0.0729 0.1292,-0.0649 0.23492,-0.20378 0.23492,-0.30873 z m 0.7777,-2.923 c 0.26872,-0.16548 0.33359,-0.30785 0.17624,-0.38684 -0.37851,-0.18997 -0.29778,-0.69933 0.15324,-0.96716 0.34294,-0.20369 0.3553,-0.28493 0.0838,-0.5506 -0.29387,-0.28757 -0.35396,-0.28569 -0.776,0.0245 -0.43704,0.32121 -0.47119,0.32097 -0.76607,-0.007 -0.20883,-0.23196 -0.36134,-0.2735 -0.47172,-0.12852 -0.0897,0.11783 0.0246,0.3826 0.25388,0.58835 0.31955,0.28685 0.35236,0.42653 0.14049,0.59862 -0.36586,0.29712 -0.34892,0.44366 0.0928,0.8024 0.44484,0.36127 0.56415,0.36404 1.1133,0.0259 z m 1.5718,-0.2031 c 0,-0.15738 -0.15857,-0.28622 -0.35242,-0.28622 -0.19385,0 -0.35242,0.12884 -0.35242,0.28622 0,0.15744 0.15857,0.28628 0.35242,0.28628 0.19385,0 0.35242,-0.12884 0.35242,-0.28628 z m 2.467,-1.4312 c -0.18854,-0.24776 -0.82233,-0.24776 -0.82233,0 0,0.10495 0.21771,0.19081 0.48376,0.19081 0.2661,0 0.41849,-0.0859 0.33856,-0.19081 z m -3.2755,-0.9723 c 0.27853,-0.36598 -0.40155,-1.1268 -1.0072,-1.1268 -0.31451,0 -0.49766,0.084 -0.41634,0.19083 0.0798,0.10498 0.0332,0.19083 -0.10364,0.19083 -0.3943,0 -0.17732,0.45438 0.33855,0.70883 0.59212,0.29201 0.98492,0.30397 1.1887,0.0363 z m -0.2082,-1.5518 c 1.0929,0.10005 1.4837,-0.0906 1.4759,-0.71985 -0.003,-0.22406 -0.0556,-0.2137 -0.24304,0.0477 -0.30315,0.4227 -0.82515,0.4305 -1.0214,0.0153 -0.18747,-0.39691 0.28519,-0.65292 0.95386,-0.51665 0.27774,0.0566 0.56865,0.0193 0.64641,-0.083 0.0778,-0.10225 -0.14854,-0.2447 -0.50298,-0.31654 -0.35449,-0.0719 -0.83038,-0.26669 -1.0576,-0.43298 -0.38562,-0.28224 -0.3871,-0.32562 -0.0223,-0.653 0.30898,-0.27736 0.32169,-0.35013 0.0606,-0.34808 -0.73602,0.006 -1.3756,0.24051 -1.2222,0.44846 0.0879,0.11926 -0.0215,0.0973 -0.24326,-0.0489 -0.55902,-0.36839 -0.66959,-0.2095 -0.78674,1.131 -0.10278,1.1757 0.22636,1.924 0.68317,1.553 0.11784,-0.0957 0.69354,-0.13007 1.2795,-0.0764 z m 2.074,-2.6281 c -0.18607,-0.24452 -0.35242,-0.24452 -0.35242,0 0,0.10496 0.11198,0.19084 0.24882,0.19084 0.13686,0 0.18344,-0.0859 0.10359,-0.19084 z m 1.1844,-0.9668 c 0.21623,-0.28418 -0.0344,-0.43866 -0.48428,-0.29848 -0.20764,0.0647 -0.31169,0.20413 -0.23123,0.30984 0.19043,0.25026 0.52046,0.24503 0.71552,-0.0114 z m -4.4122,-1.3249 c -0.16508,-0.21463 -0.33372,-0.28896 -0.38307,-0.16875 -0.0485,0.11812 0.0569,0.28938 0.23418,0.38057 0.46272,0.23807 0.47804,0.21623 0.1489,-0.21182 z m 1.2307,-0.677 c 0,-0.41036 -0.47434,-0.52862 -1.0742,-0.26785 -0.50491,0.21945 -0.52179,0.26566 -0.17241,0.47316 0.46541,0.27634 1.2467,0.14768 1.2467,-0.20531 z m 1.4097,0.1064 c 0.28499,-0.1496 0.25125,-0.18553 -0.17618,-0.1879 -0.29077,-0.002 -0.52866,0.0829 -0.52866,0.1879 0,0.23908 0.24931,0.23908 0.70483,0 z m 362.77001,80.423004 c 0,-0.29272 0.0794,-0.4545 0.1763,-0.3595 0.0969,0.0949 0.26047,0.22418 0.36352,0.28714 0.10303,0.063 0.0237,0.22473 -0.17618,0.35953 -0.31335,0.21118 -0.36365,0.17154 -0.36365,-0.28717 z m 50.04499,-3.5331 c 0,-0.11118 -0.10565,-0.14896 -0.23498,-0.0841 -0.12915,0.0648 -0.23492,0.0362 -0.23492,-0.0638 0,-0.0999 0.15857,-0.23111 0.35242,-0.29153 0.23981,-0.0747 0.35248,0.0103 0.35248,0.26584 0,0.2066 -0.0529,0.37567 -0.11755,0.37567 -0.0646,0 -0.11743,-0.091 -0.11743,-0.20212 z m -310.14,-0.6089 c -2.1e-4,-0.0262 -0.15723,-0.77176 -0.34898,-1.6566 -0.35121,-1.6211 -0.34032,-1.8632 0.0749,-1.6548 0.29823,0.14972 1.0528,2.9172 0.86333,3.1662 -0.12677,0.16663 -0.58841,0.28033 -0.58928,0.14523 z m 306.98,-1.8442 c -0.0757,-0.0994 -0.0374,-0.23099 0.0849,-0.29248 0.1225,-0.0614 0.28455,-0.0304 0.36017,0.0691 0.0757,0.0994 0.0373,0.23102 -0.0851,0.29242 -0.12238,0.0615 -0.28436,0.0304 -0.35998,-0.069 z m 0.0105,-1.1107 c -0.25616,-0.20807 -0.14594,-0.41629 0.32947,-0.62296 0.39441,-0.17145 0.46991,-0.14511 0.46991,0.16373 0,0.36774 -0.53412,0.67462 -0.79938,0.45923 z m -502.240004,-1.8745 c 0,-0.16364 0.10576,-0.24445 0.23498,-0.17956 0.30399,0.15262 0.30399,0.47708 0,0.47708 -0.12922,0 -0.23498,-0.13391 -0.23498,-0.29752 z m 5.169,-0.2637 c 0,-0.0988 0.10573,-0.2326 0.23495,-0.29746 0.12926,-0.0649 0.23496,0.0159 0.23496,0.17954 0,0.16357 -0.1057,0.29752 -0.23496,0.29752 -0.12922,0 -0.23495,-0.0808 -0.23495,-0.1796 z m -1.1673,-1.0063 c 0.007,-0.23941 0.6974,-1.1001 0.6974,-0.86978 0,0.0639 0.0611,0.24551 0.13571,0.40347 0.0821,0.17377 -0.057,0.371 -0.35241,0.49939 -0.37678,0.16376 -0.48644,0.15622 -0.48069,-0.0331 z m -2.3495,-1.1682 c -0.005,-0.21726 0.26059,-0.43277 0.6974,-0.56662 0.38767,-0.11884 0.70486,-0.28314 0.70486,-0.36508 0,-0.082 0.1586,-0.14902 0.35241,-0.14902 0.54932,0 0.41395,0.5119 -0.17617,0.66629 -0.29078,0.0761 -0.61986,0.12579 -0.73128,0.11054 -0.11144,-0.0153 -0.34596,0.12567 -0.52122,0.31323 -0.30489,0.32657 -0.31884,0.32614 -0.326,-0.009 z m 8.4509,-1.236 c 0,-0.10001 0.26849,-0.22354 0.59668,-0.27451 0.37658,-0.0584 0.56482,-0.0139 0.51024,0.12088 -0.10728,0.26486 -1.1069,0.4036 -1.1069,0.15362 z m -8.2234,-0.5013 c 0,-0.15122 0.0946,-0.32245 0.21032,-0.38052 0.24188,-0.12143 0.53349,0.36945 0.32173,0.54144 -0.25213,0.2048 -0.53205,0.12012 -0.53205,-0.16092 z m 2.1146,-0.0252 c 0,-0.1777 0.15987,-0.27508 0.39167,-0.23852 0.58948,0.0928 0.67041,0.53876 0.0978,0.53876 -0.28859,0 -0.48947,-0.1232 -0.48947,-0.30023 z m 12.434,-1.4648 c -0.0105,-0.0263 -0.0404,-0.28384 -0.0665,-0.57248 -0.0609,-0.67401 0.60676,-0.71771 0.97362,-0.0637 0.20834,0.37131 0.18908,0.48273 -0.0989,0.57245 -0.36979,0.11526 -0.7748,0.14722 -0.80817,0.0638 z m 258.060014,-5.5815 c -0.003,-0.41983 0.0434,-0.61404 0.10223,-0.43161 0.0588,0.18243 0.061,0.52594 0.005,0.76328 -0.0562,0.23743 -0.10425,0.0881 -0.10693,-0.33166 z m -90.42801,-1.2329 c 0.0858,-0.83551 0.21597,-3.5619 0.28937,-6.0586 0.14613,-4.9744 0.55655,-6.5834 0.59688,-2.3397 0.0301,3.1794 0.0232,4.0164 -0.0481,5.767 -0.031,0.76092 0.0204,1.8818 0.1144,2.4908 0.17894,1.1604 -0.047,1.6596 -0.75107,1.6596 -0.30307,0 -0.33372,-0.23105 -0.20145,-1.5191 z m -163.600004,-10.582 c -0.0102,-0.20111 0.0454,-0.31381 0.12344,-0.25043 0.0781,0.0634 0.0864,0.228 0.0185,0.36572 -0.075,0.15222 -0.13067,0.10702 -0.14196,-0.1153 z m 131.320004,-10.809 c 0,-0.34061 0.0979,-0.53464 0.23492,-0.46579 0.30589,0.15356 0.30589,1.0495 0,1.0495 -0.1292,0 -0.23492,-0.26273 -0.23492,-0.58374 z m -65.552,-29.216004 c 0,-0.54225 0.0388,-0.95012 0.0862,-0.90643 0.20004,0.18446 0.30826,1.8923 0.1199,1.8923 -0.11339,0 -0.20615,-0.44362 -0.20615,-0.98589 z m -0.0636,-1.4193 c -0.0942,-0.0765 -0.15897,-0.61856 -0.14384,-1.2046 l 0.0274,-1.0654 0.2121,1.0384 c 0.22188,1.0868 0.19252,1.4656 -0.0956,1.2315 z m 11.614,-0.648 c 0,-0.26238 0.0533,-0.36972 0.11844,-0.23852 0.0652,0.1312 0.0652,0.34587 0,0.47702 -0.0651,0.13121 -0.11844,0.0239 -0.11844,-0.2385 z m -0.0371,-1.0383 c 0,-0.33516 0.14094,-0.38452 0.34239,-0.11984 0.0743,0.0977 0.0277,0.23158 -0.10364,0.29748 -0.13135,0.066 -0.23875,-0.014 -0.23875,-0.17764 z m -12.013,-2.5396 c -0.0167,-0.39357 -0.0602,-1.0806 -0.0967,-1.5266 -0.0364,-0.44604 0.0301,-0.81097 0.14788,-0.81097 0.11776,0 0.21556,0.49374 0.21731,1.0972 0.002,0.60348 0.0669,1.2904 0.14485,1.5266 0.085,0.2576 0.0368,0.42935 -0.12065,0.42935 -0.14432,0 -0.27599,-0.32201 -0.29273,-0.71558 z m 0.9738,-3.8052 c 0.003,-0.66283 0.0668,-0.83816 0.23135,-0.63142 0.29878,0.37549 0.29878,1.2812 0,1.4312 -0.14438,0.0724 -0.23358,-0.2359 -0.23135,-0.79976 z m 10.118,0.2432 c -0.0102,-0.20114 0.0454,-0.31387 0.12347,-0.25044 0.078,0.0634 0.0864,0.22797 0.0185,0.36575 -0.075,0.15219 -0.13066,0.10701 -0.14195,-0.11531 z m 250.44,-61.65099992 c 0,-0.53272 0.56918,-0.65784 0.79724,-0.17522 0.23828,0.50433 0.16403,0.65228 -0.32733,0.65228 -0.3446,0 -0.46991,-0.12721 -0.46991,-0.47707 z"
     fill="#005fbf"
     id="path833"
     style="fill:#db6f34;fill-opacity:1" />
</svg>
